<?xml version="1.0" encoding="UTF-8" ?>
<!DOCTYPE svg PUBLIC "-//W3C//DTD SVG 1.1//EN" "http://www.w3.org/Graphics/SVG/1.1/DTD/svg11.dtd">
<svg width="1307pt" height="765pt" viewBox="0 0 1307 765" version="1.1" xmlns="http://www.w3.org/2000/svg">
<path fill="#30651d" d=" M 0.00 0.00 L 1307.00 0.00 L 1307.00 192.35 C 1281.10 192.40 1255.21 192.46 1229.32 192.31 C 1229.89 188.78 1228.88 185.48 1226.62 182.75 C 1231.24 179.23 1235.66 174.70 1236.50 168.69 C 1237.24 164.85 1234.73 161.51 1233.44 158.10 C 1234.89 155.87 1237.39 153.93 1237.39 151.05 C 1237.62 146.00 1236.22 141.02 1236.54 135.96 C 1236.59 132.21 1238.27 128.72 1238.51 125.00 C 1238.54 120.90 1236.49 117.10 1236.49 113.00 C 1236.34 110.90 1236.68 108.74 1236.18 106.69 C 1234.20 103.50 1231.14 101.04 1229.71 97.52 C 1228.98 95.22 1228.83 92.79 1228.51 90.42 C 1226.59 89.37 1224.50 88.56 1222.86 87.11 C 1220.74 84.61 1220.07 81.25 1218.12 78.64 C 1214.95 77.32 1211.75 76.06 1209.17 73.72 C 1202.89 70.35 1196.18 67.22 1188.95 66.76 C 1176.18 66.29 1163.31 66.88 1150.80 69.68 C 1147.53 70.70 1144.35 72.01 1140.99 72.68 C 1134.99 73.89 1130.08 77.78 1125.15 81.17 C 1122.41 83.43 1118.89 85.05 1117.21 88.34 C 1115.90 90.59 1114.78 92.94 1113.73 95.32 C 1115.14 95.28 1116.56 95.25 1118.00 95.22 C 1115.17 99.48 1112.44 103.87 1110.70 108.71 C 1108.59 114.91 1104.08 119.82 1100.36 125.08 C 1101.30 128.42 1103.55 131.91 1102.42 135.44 C 1097.60 142.25 1090.07 146.39 1084.13 152.09 C 1082.21 153.87 1080.64 157.00 1082.37 159.42 C 1084.87 162.18 1088.75 162.90 1092.00 164.47 C 1092.17 169.04 1089.67 172.92 1088.34 177.11 C 1089.28 180.92 1094.02 180.84 1097.03 182.05 C 1094.27 182.52 1091.50 183.04 1088.79 183.71 C 1089.25 186.65 1090.22 189.46 1091.48 192.16 C 1044.32 192.69 997.16 192.25 950.00 192.39 C 939.33 192.17 928.58 193.12 917.99 191.46 C 920.39 189.43 922.82 187.21 925.93 186.32 C 931.10 184.59 936.97 186.61 941.91 183.99 C 945.01 182.13 944.51 178.11 944.74 175.03 C 944.64 172.21 946.56 169.99 947.91 167.70 C 946.68 166.05 945.42 164.44 944.16 162.82 C 945.88 161.81 947.61 160.81 949.36 159.82 C 948.71 157.25 948.04 154.69 947.45 152.11 C 949.48 149.66 954.10 148.03 953.48 144.29 C 951.14 139.19 945.07 135.98 944.67 129.95 C 945.39 124.23 946.97 118.56 949.73 113.47 C 952.04 109.04 951.82 103.88 951.57 99.05 C 951.31 95.04 948.50 91.92 946.43 88.70 C 944.04 85.44 942.56 81.18 938.71 79.31 C 930.37 74.98 922.37 69.51 912.99 67.72 C 908.34 66.94 903.65 66.44 898.95 66.20 C 893.40 65.80 888.39 68.72 882.99 69.36 C 877.98 69.56 872.90 68.78 867.96 69.92 C 860.99 71.53 853.75 73.41 848.11 78.03 C 841.56 83.43 836.04 90.70 834.71 99.26 C 834.04 104.53 834.20 109.95 835.68 115.08 C 836.51 118.68 837.95 123.63 834.03 125.95 C 824.09 133.23 813.77 140.43 806.27 150.38 C 804.60 152.46 803.70 155.04 803.64 157.70 C 803.28 163.40 800.24 168.60 800.24 174.33 C 801.16 175.15 802.13 175.94 803.13 176.69 C 803.42 181.87 803.35 187.06 803.13 192.24 C 753.76 192.60 704.38 192.29 655.00 192.39 C 503.18 192.36 351.35 192.45 199.52 192.35 C 199.44 197.14 199.13 201.93 198.55 206.70 C 196.32 206.60 194.08 206.51 191.85 206.41 C 191.68 201.76 191.58 197.11 191.47 192.47 C 152.75 192.26 114.03 192.49 75.31 192.36 C 75.28 358.67 75.26 524.97 75.32 691.28 C 98.54 691.75 121.77 691.35 145.00 691.48 C 340.33 691.48 535.67 691.48 731.00 691.48 C 773.79 691.42 816.58 691.59 859.37 691.40 C 859.08 694.96 857.51 698.31 857.37 701.88 C 858.07 707.24 859.72 712.58 859.23 718.04 C 858.21 722.41 855.68 726.22 854.21 730.44 C 851.53 737.30 851.62 744.78 850.72 751.99 C 850.31 756.33 849.77 760.93 851.74 765.00 L 0.00 765.00 L 0.00 0.00 Z" />
<path fill="#fcfdfa" d=" M 122.31 54.85 C 124.78 53.78 126.47 56.54 128.19 57.86 C 140.26 70.43 152.66 82.69 164.90 95.10 C 167.30 97.66 170.27 99.96 171.66 103.26 C 171.76 105.91 172.63 109.35 170.15 111.19 C 165.96 115.02 161.65 118.71 157.39 122.44 C 154.02 125.55 149.18 124.77 145.00 124.86 C 128.97 124.63 112.94 124.67 96.91 124.69 C 92.41 125.09 89.22 121.49 86.04 118.93 C 82.64 115.69 78.56 113.14 75.58 109.48 C 75.30 106.64 74.51 103.01 76.92 100.87 C 89.24 87.55 102.29 74.93 114.85 61.84 C 117.23 59.41 119.33 56.59 122.31 54.85 Z" />
<path fill="#fcfdfa" d=" M 882.99 69.36 C 888.39 68.72 893.40 65.80 898.95 66.20 C 903.65 66.44 908.34 66.94 912.99 67.72 C 922.37 69.51 930.37 74.98 938.71 79.31 C 942.56 81.18 944.04 85.44 946.43 88.70 C 948.50 91.92 951.31 95.04 951.57 99.05 C 951.82 103.88 952.04 109.04 949.73 113.47 C 946.97 118.56 945.39 124.23 944.67 129.95 C 945.07 135.98 951.14 139.19 953.48 144.29 C 954.10 148.03 949.48 149.66 947.45 152.11 C 948.04 154.69 948.71 157.25 949.36 159.82 C 947.61 160.81 945.88 161.81 944.16 162.82 C 945.42 164.44 946.68 166.05 947.91 167.70 C 946.56 169.99 944.64 172.21 944.74 175.03 C 944.51 178.11 945.01 182.13 941.91 183.99 C 936.97 186.61 931.10 184.59 925.93 186.32 C 922.82 187.21 920.39 189.43 917.99 191.46 C 918.25 193.19 918.30 195.00 919.05 196.61 C 921.07 198.17 923.60 198.89 925.59 200.50 C 926.74 201.81 927.50 203.39 928.32 204.93 C 932.47 213.45 937.83 221.40 940.92 230.42 C 945.96 242.43 948.02 255.34 951.48 267.83 C 953.14 274.18 954.67 280.58 956.68 286.84 C 962.45 286.12 968.01 284.35 973.74 283.38 C 977.23 282.75 980.68 283.80 984.13 284.23 C 990.07 284.72 996.13 282.26 1001.99 283.96 C 1005.21 289.16 1005.89 295.45 1007.87 301.16 C 1005.90 304.84 1001.84 306.86 999.82 310.52 C 997.96 313.97 996.36 317.89 993.08 320.25 C 988.05 322.59 982.00 322.91 977.67 326.65 C 974.20 330.40 972.21 335.21 969.68 339.59 C 965.99 346.80 960.63 353.59 960.21 362.00 C 959.97 368.90 956.04 374.75 954.02 381.17 C 956.42 382.08 960.23 381.29 961.41 384.05 C 960.34 389.85 956.43 394.94 956.64 401.01 C 956.40 403.69 957.37 406.98 955.09 409.03 C 952.26 412.19 949.80 415.69 946.52 418.40 C 945.23 419.70 943.14 420.90 943.65 423.04 C 944.47 428.49 948.95 433.03 948.28 438.80 C 947.35 446.30 942.18 452.15 937.73 457.89 C 934.62 461.51 935.48 466.57 935.25 470.96 C 934.77 481.67 938.11 492.35 935.87 503.00 C 934.99 509.43 932.53 516.68 936.36 522.62 C 938.39 527.29 940.84 531.94 941.71 536.99 C 941.59 540.39 940.48 545.69 936.27 545.91 C 929.48 547.08 922.64 548.16 915.73 547.56 C 913.62 555.50 911.41 563.40 910.24 571.53 C 906.78 579.65 902.39 587.84 902.51 596.94 C 902.80 615.29 902.58 633.64 902.44 652.00 C 902.44 657.17 902.30 662.38 903.04 667.52 C 903.84 674.32 905.64 681.01 905.52 687.90 C 908.80 689.27 912.05 690.79 915.51 691.71 C 916.33 693.63 917.11 695.57 917.87 697.54 C 922.84 698.55 927.65 700.16 932.57 701.39 C 937.87 702.47 944.10 697.95 948.55 702.46 C 952.30 706.15 958.34 703.55 962.37 706.81 C 965.51 709.21 968.40 713.25 967.35 717.40 C 966.05 720.34 963.30 722.31 961.79 725.13 C 961.29 728.19 962.10 731.59 960.46 734.41 C 958.84 736.96 956.57 739.02 954.45 741.15 C 960.40 743.64 966.67 747.51 968.30 754.22 C 968.95 759.11 964.60 762.80 960.78 765.00 L 851.74 765.00 C 849.77 760.93 850.31 756.33 850.72 751.99 C 851.62 744.78 851.53 737.30 854.21 730.44 C 855.68 726.22 858.21 722.41 859.23 718.04 C 859.72 712.58 858.07 707.24 857.37 701.88 C 857.51 698.31 859.08 694.96 859.37 691.40 C 857.13 676.45 852.15 662.04 850.26 647.04 C 847.74 628.26 851.98 609.52 855.64 591.19 C 856.99 584.20 856.30 577.02 857.41 570.00 C 859.02 559.74 858.40 549.33 858.31 539.00 C 857.99 536.31 858.17 533.02 856.07 531.01 C 851.31 528.00 845.29 527.35 839.98 529.21 C 836.20 530.56 832.47 528.68 828.91 527.59 C 826.02 529.48 823.13 531.36 820.08 532.98 C 819.15 531.05 817.85 529.21 817.56 527.06 C 818.63 523.30 821.61 520.13 821.53 516.06 C 821.59 509.49 821.22 502.88 822.18 496.36 C 823.49 486.29 825.12 476.20 824.63 466.01 C 824.05 456.28 826.18 446.71 826.47 437.03 C 826.44 430.65 827.53 424.24 830.19 418.42 C 833.66 410.87 836.04 402.90 838.95 395.13 C 841.00 389.51 842.60 383.38 847.08 379.11 C 850.75 375.71 852.42 370.06 857.86 368.95 C 855.69 365.18 852.57 361.58 852.53 357.01 C 852.27 352.01 851.97 347.00 850.90 342.11 C 849.76 336.87 850.64 331.28 848.60 326.24 C 847.23 322.63 845.81 318.96 845.60 315.06 C 844.74 300.66 847.32 286.38 848.27 272.05 C 848.68 256.09 847.31 239.50 853.07 224.26 C 854.89 218.40 856.91 211.78 854.30 205.86 C 853.15 202.94 851.71 199.81 852.56 196.62 C 854.37 194.15 857.41 193.12 860.22 192.26 C 863.88 191.39 870.21 189.80 868.39 184.70 C 864.06 178.20 855.12 177.71 849.96 172.06 C 843.04 166.16 842.80 156.33 842.59 147.95 C 842.31 144.95 843.16 141.36 840.97 138.90 C 837.05 136.89 833.31 140.32 831.74 143.71 C 827.38 152.85 825.64 163.69 828.87 173.46 C 830.85 179.44 832.02 185.63 833.57 191.72 C 836.36 201.97 839.01 212.70 837.09 223.36 C 835.89 227.32 831.61 229.23 830.04 232.99 C 827.70 238.57 825.56 244.29 822.35 249.45 C 819.11 254.41 819.14 260.77 815.58 265.58 C 811.25 271.42 806.76 277.43 800.58 281.44 C 802.74 273.54 807.87 266.73 809.16 258.56 C 809.58 255.96 809.54 253.31 809.55 250.68 C 806.31 256.87 801.38 261.79 796.25 266.42 C 798.18 261.37 800.71 256.43 801.18 250.96 C 801.67 244.90 802.39 238.81 804.34 233.02 C 805.67 228.31 808.21 223.68 807.61 218.64 C 807.22 214.74 806.21 210.94 805.50 207.09 C 803.48 197.08 804.20 186.79 803.13 176.69 C 802.13 175.94 801.16 175.15 800.24 174.33 C 800.24 168.60 803.28 163.40 803.64 157.70 C 803.70 155.04 804.60 152.46 806.27 150.38 C 813.77 140.43 824.09 133.23 834.03 125.95 C 837.95 123.63 836.51 118.68 835.68 115.08 C 834.20 109.95 834.04 104.53 834.71 99.26 C 836.04 90.70 841.56 83.43 848.11 78.03 C 853.75 73.41 860.99 71.53 867.96 69.92 C 872.90 68.78 877.98 69.56 882.99 69.36 Z" />
<path fill="#fcfdfa" d=" M 1150.80 69.68 C 1163.31 66.88 1176.18 66.29 1188.95 66.76 C 1196.18 67.22 1202.89 70.35 1209.17 73.72 C 1211.75 76.06 1214.95 77.32 1218.12 78.64 C 1220.07 81.25 1220.74 84.61 1222.86 87.11 C 1224.50 88.56 1226.59 89.37 1228.51 90.42 C 1228.83 92.79 1228.98 95.22 1229.71 97.52 C 1231.14 101.04 1234.20 103.50 1236.18 106.69 C 1236.68 108.74 1236.34 110.90 1236.49 113.00 C 1236.49 117.10 1238.54 120.90 1238.51 125.00 C 1238.27 128.72 1236.59 132.21 1236.54 135.96 C 1236.22 141.02 1237.62 146.00 1237.39 151.05 C 1237.39 153.93 1234.89 155.87 1233.44 158.10 C 1234.73 161.51 1237.24 164.85 1236.50 168.69 C 1235.66 174.70 1231.24 179.23 1226.62 182.75 C 1228.88 185.48 1229.89 188.78 1229.32 192.31 C 1230.51 198.73 1234.05 204.70 1238.91 209.06 C 1252.64 222.89 1268.65 234.10 1284.10 245.89 C 1292.38 251.86 1300.05 258.66 1307.00 266.14 L 1307.00 765.00 L 1220.87 765.00 C 1226.32 755.97 1236.53 752.09 1245.55 747.67 C 1254.11 744.06 1262.10 739.19 1269.11 733.08 C 1261.40 733.82 1253.77 735.80 1245.98 735.34 C 1235.28 734.74 1224.60 733.05 1214.30 730.07 C 1208.34 728.45 1202.95 725.31 1198.13 721.51 C 1202.31 717.33 1203.83 709.81 1210.38 708.58 C 1217.71 706.74 1225.33 707.34 1232.81 707.42 C 1228.37 701.94 1223.85 696.53 1219.19 691.24 C 1213.01 683.95 1206.89 676.61 1200.48 669.53 C 1182.98 651.21 1161.34 637.76 1140.58 623.55 C 1125.69 613.68 1109.32 606.03 1095.48 594.62 C 1089.73 589.87 1084.43 584.15 1081.75 577.08 C 1079.85 572.23 1079.94 566.94 1079.78 561.82 C 1075.18 560.94 1071.56 558.00 1068.77 554.39 C 1067.10 557.30 1065.43 560.20 1063.50 562.94 C 1060.90 560.76 1058.74 558.01 1055.77 556.31 C 1052.85 556.05 1051.43 559.18 1050.90 561.56 C 1050.08 565.81 1049.95 570.27 1050.72 574.54 C 1052.91 580.56 1059.49 583.73 1061.44 589.91 C 1062.66 592.74 1062.16 595.85 1061.70 598.79 C 1056.37 598.31 1050.68 598.04 1046.00 595.19 C 1042.05 591.93 1041.72 586.32 1040.16 581.78 C 1037.43 583.50 1035.16 585.81 1032.90 588.07 C 1028.08 582.80 1030.06 575.33 1029.42 568.90 C 1029.36 564.02 1026.20 559.95 1025.53 555.21 C 1023.35 542.94 1025.93 530.35 1030.20 518.82 C 1034.52 507.85 1040.23 497.48 1046.57 487.57 C 1050.62 481.15 1055.80 475.37 1062.21 471.24 C 1072.85 465.04 1082.83 457.74 1093.74 452.01 C 1097.27 450.10 1101.12 448.74 1104.41 446.39 C 1107.89 443.87 1109.97 439.92 1113.36 437.29 C 1116.67 434.64 1120.63 432.81 1123.53 429.62 C 1126.39 426.78 1128.84 422.92 1133.03 421.97 C 1136.39 421.35 1139.83 421.54 1143.23 421.41 C 1143.69 416.58 1142.95 411.13 1145.84 406.93 C 1147.73 405.96 1149.85 405.60 1151.91 405.08 C 1151.49 395.71 1149.97 386.40 1150.60 377.00 C 1151.90 351.60 1153.04 326.20 1155.21 300.86 C 1155.92 295.41 1152.06 291.04 1149.92 286.41 C 1145.37 276.94 1141.49 267.16 1137.73 257.35 C 1136.71 253.94 1134.88 249.66 1137.46 246.52 C 1138.76 244.63 1140.41 242.98 1141.47 240.92 C 1140.92 233.74 1135.72 227.14 1128.75 225.15 C 1121.95 223.14 1114.72 223.46 1107.84 221.78 C 1101.27 220.30 1094.02 218.89 1089.35 213.59 C 1085.48 209.38 1085.10 202.15 1088.83 197.73 C 1089.87 196.30 1091.00 194.93 1092.03 193.48 C 1091.89 193.15 1091.62 192.49 1091.48 192.16 C 1090.22 189.46 1089.25 186.65 1088.79 183.71 C 1091.50 183.04 1094.27 182.52 1097.03 182.05 C 1094.02 180.84 1089.28 180.92 1088.34 177.11 C 1089.67 172.92 1092.17 169.04 1092.00 164.47 C 1088.75 162.90 1084.87 162.18 1082.37 159.42 C 1080.64 157.00 1082.21 153.87 1084.13 152.09 C 1090.07 146.39 1097.60 142.25 1102.42 135.44 C 1103.55 131.91 1101.30 128.42 1100.36 125.08 C 1104.08 119.82 1108.59 114.91 1110.70 108.71 C 1112.44 103.87 1115.17 99.48 1118.00 95.22 C 1116.56 95.25 1115.14 95.28 1113.73 95.32 C 1114.78 92.94 1115.90 90.59 1117.21 88.34 C 1118.89 85.05 1122.41 83.43 1125.15 81.17 C 1130.08 77.78 1134.99 73.89 1140.99 72.68 C 1144.35 72.01 1147.53 70.70 1150.80 69.68 Z" />
<path fill="#30651d" d=" M 104.54 79.54 C 108.35 75.84 111.79 71.75 115.93 68.42 C 115.86 72.83 113.00 76.38 111.08 80.13 C 106.72 87.91 102.76 95.90 98.20 103.56 C 92.80 103.45 87.40 103.72 82.02 103.25 C 89.15 95.00 96.94 87.35 104.54 79.54 Z" />
<path fill="#30651d" d=" M 130.16 68.50 C 133.09 69.84 135.30 72.22 137.44 74.55 C 146.45 84.20 156.06 93.29 164.75 103.21 C 159.38 103.76 153.97 103.45 148.58 103.54 C 144.64 97.01 141.33 90.12 137.50 83.53 C 134.99 78.55 131.83 73.85 130.16 68.50 Z" />
<path fill="#30651d" d=" M 123.19 69.06 C 128.36 75.81 131.66 83.80 135.89 91.15 C 138.29 96.22 141.67 100.81 143.70 106.04 C 142.02 110.86 138.76 114.97 136.67 119.62 C 127.83 119.74 118.99 119.68 110.14 119.65 C 108.03 115.54 105.58 111.61 103.52 107.48 C 102.63 105.81 103.94 104.12 104.62 102.65 C 110.90 91.51 116.54 79.99 123.19 69.06 Z" />
<path fill="#fcfdfa" d=" M 184.96 95.06 C 190.48 91.13 197.71 92.26 203.84 93.89 C 203.63 95.81 203.38 97.72 203.08 99.63 C 199.02 98.52 194.71 97.63 190.53 98.63 C 184.71 102.73 184.07 112.18 188.49 117.53 C 192.45 121.52 198.43 119.03 203.11 117.99 C 203.73 119.40 204.35 120.80 204.94 122.23 C 199.95 124.86 194.05 126.56 188.51 124.67 C 183.90 123.42 180.51 119.22 179.53 114.66 C 177.58 107.88 179.14 99.50 184.96 95.06 Z" />
<path fill="#fcfdfa" d=" M 264.46 93.65 C 271.03 92.78 278.46 90.94 284.49 94.65 C 294.81 100.73 293.44 118.77 282.37 123.24 C 276.68 125.51 270.40 124.41 264.43 124.67 C 264.51 114.33 264.46 103.99 264.46 93.65 Z" />
<path fill="#fcfdfa" d=" M 294.41 93.45 C 296.46 93.36 298.52 93.34 300.58 93.42 C 300.63 95.45 300.61 97.49 300.52 99.53 C 298.52 99.58 296.52 99.55 294.52 99.44 C 294.39 97.45 294.36 95.45 294.41 93.45 Z" />
<path fill="#fcfdfa" d=" M 351.43 93.45 C 353.46 93.37 355.50 93.37 357.54 93.45 C 357.63 95.47 357.67 97.49 357.64 99.52 C 355.62 99.32 352.81 100.49 351.51 98.40 C 351.19 96.76 351.38 95.09 351.43 93.45 Z" />
<path fill="#fcfdfa" d=" M 415.56 93.46 C 417.52 93.35 419.49 93.30 421.47 93.30 C 422.11 95.36 422.98 97.64 421.17 99.39 C 419.28 99.87 417.35 99.53 415.47 99.27 C 415.45 97.33 415.48 95.40 415.56 93.46 Z" />
<path fill="#fcfdfa" d=" M 363.68 96.14 C 365.65 95.79 367.63 95.51 369.62 95.22 C 369.65 97.32 369.64 99.42 369.64 101.52 C 371.74 101.56 373.84 101.61 375.95 101.65 C 375.71 103.24 375.47 104.82 375.25 106.41 C 373.36 106.49 371.48 106.57 369.61 106.65 C 369.66 110.93 369.57 115.22 369.95 119.48 C 371.89 119.79 373.84 120.13 375.80 120.45 C 375.83 121.83 375.87 123.21 375.91 124.59 C 372.13 125.18 367.21 126.01 364.59 122.46 C 362.82 117.43 363.94 111.96 363.65 106.74 C 362.51 106.62 361.39 106.50 360.26 106.38 C 360.23 104.88 360.20 103.37 360.16 101.87 C 361.30 101.72 362.44 101.57 363.59 101.43 C 363.61 99.67 363.63 97.90 363.68 96.14 Z" />
<path fill="#fcfdfa" d=" M 400.48 96.26 C 402.28 95.48 404.30 95.57 406.22 95.32 C 406.22 97.41 406.23 99.50 406.24 101.60 C 408.33 101.59 410.44 101.60 412.54 101.64 C 412.13 103.26 411.73 104.88 411.34 106.51 C 409.64 106.51 407.95 106.51 406.27 106.51 C 406.23 110.85 406.17 115.20 406.37 119.54 C 408.26 119.79 410.15 120.07 412.04 120.37 C 412.21 121.75 412.38 123.12 412.56 124.50 C 408.55 125.29 403.49 126.03 400.79 122.16 C 399.28 117.14 399.91 111.83 399.77 106.67 C 398.63 106.57 397.49 106.47 396.36 106.37 C 396.33 104.96 396.30 103.55 396.28 102.14 C 397.38 101.89 398.48 101.64 399.59 101.41 C 399.84 99.69 400.08 97.96 400.48 96.26 Z" />
<path fill="#30651d" d=" M 271.43 97.59 C 276.23 97.32 281.72 98.38 283.95 103.19 C 285.03 107.41 285.14 112.63 282.06 116.11 C 279.49 119.25 275.02 118.94 271.42 119.71 C 270.46 112.38 270.55 104.93 271.43 97.59 Z" />
<path fill="#fcfdfa" d=" M 210.59 102.73 C 216.03 100.21 223.67 101.77 226.29 107.59 C 228.15 112.25 228.06 118.56 224.08 122.13 C 219.23 126.96 209.59 126.00 206.27 119.81 C 203.10 114.17 204.59 105.86 210.59 102.73 Z" />
<path fill="#fcfdfa" d=" M 229.89 104.01 C 234.29 100.77 240.20 101.49 245.22 102.60 C 248.77 102.45 252.37 100.77 255.92 102.06 C 258.27 102.67 260.42 104.62 260.63 107.15 C 261.51 113.01 261.15 118.97 260.78 124.86 C 258.76 124.83 256.74 124.77 254.73 124.68 C 254.63 118.93 254.82 113.18 254.48 107.44 C 252.45 107.35 250.43 107.31 248.40 107.29 C 248.44 113.10 248.51 118.91 248.36 124.72 C 246.33 124.72 244.30 124.72 242.27 124.72 C 242.18 118.91 242.79 113.01 241.46 107.29 C 239.53 107.31 237.60 107.35 235.68 107.43 C 235.66 113.21 235.67 119.00 235.66 124.79 C 233.68 124.75 231.71 124.70 229.74 124.64 C 229.87 117.76 229.44 110.87 229.89 104.01 Z" />
<path fill="#fcfdfa" d=" M 294.33 101.61 C 296.40 101.62 298.48 101.64 300.56 101.67 C 300.53 109.36 300.51 117.06 300.51 124.76 C 298.45 124.74 296.40 124.70 294.35 124.64 C 294.27 116.96 294.37 109.29 294.33 101.61 Z" />
<path fill="#fcfdfa" d=" M 309.74 102.66 C 314.54 100.57 319.86 101.92 324.56 103.61 C 324.63 111.72 324.69 119.83 324.55 127.94 C 324.75 131.26 321.80 133.81 318.79 134.48 C 314.10 135.15 309.29 134.59 304.85 132.96 C 305.38 131.36 305.94 129.78 306.53 128.21 C 310.28 129.57 314.27 129.85 318.21 129.34 C 318.35 127.74 318.49 126.15 318.65 124.55 C 314.56 125.81 309.39 126.24 306.36 122.59 C 302.86 119.53 303.07 114.49 303.54 110.28 C 304.41 107.05 306.36 103.72 309.74 102.66 Z" />
<path fill="#fcfdfa" d=" M 328.25 103.56 C 333.16 102.10 338.58 100.49 343.57 102.54 C 346.12 103.54 347.68 106.21 347.63 108.90 C 347.85 114.18 347.67 119.46 347.69 124.74 C 345.64 124.71 343.59 124.69 341.54 124.66 C 341.47 119.15 341.98 113.59 341.22 108.12 C 339.46 105.86 336.76 106.95 334.45 107.44 C 334.46 113.20 334.41 118.95 334.47 124.71 C 332.38 124.73 330.30 124.77 328.22 124.81 C 328.14 117.72 328.13 110.64 328.25 103.56 Z" />
<path fill="#fcfdfa" d=" M 351.34 101.58 C 353.40 101.58 355.46 101.60 357.53 101.63 C 357.49 109.31 357.59 116.99 357.51 124.68 C 355.47 124.70 353.42 124.73 351.39 124.75 C 351.32 117.03 351.26 109.30 351.34 101.58 Z" />
<path fill="#fcfdfa" d=" M 377.67 103.01 C 382.34 101.81 387.68 100.52 392.19 102.93 C 394.85 104.23 395.30 107.44 395.46 110.08 C 395.58 114.51 395.44 118.95 395.44 123.38 C 390.49 124.84 384.95 126.28 380.06 123.88 C 376.24 121.87 375.21 116.26 378.21 113.11 C 380.96 110.28 385.20 110.25 388.86 109.68 C 388.74 108.92 388.50 107.42 388.38 106.66 C 385.32 106.39 382.32 107.07 379.36 107.73 C 378.79 106.15 378.26 104.57 377.67 103.01 Z" />
<path fill="#fcfdfa" d=" M 415.60 101.56 C 417.57 101.76 419.74 101.23 421.58 102.12 C 421.79 109.64 421.66 117.18 421.60 124.70 C 419.60 124.69 417.60 124.68 415.61 124.67 C 415.54 116.97 415.51 109.26 415.60 101.56 Z" />
<path fill="#fcfdfa" d=" M 427.56 103.51 C 431.68 100.48 437.01 101.69 441.57 102.84 C 441.08 104.45 440.59 106.06 440.13 107.67 C 436.95 106.84 433.53 105.85 430.58 107.95 C 434.00 110.93 439.31 111.10 442.01 114.96 C 443.65 118.19 442.18 122.35 438.93 123.99 C 434.14 126.25 428.71 124.74 423.92 123.30 C 424.46 121.67 425.05 120.06 425.66 118.45 C 428.85 119.50 432.19 119.90 435.55 119.81 C 435.58 119.13 435.64 117.79 435.67 117.12 C 432.19 115.51 428.00 114.67 425.52 111.52 C 425.15 108.77 424.73 105.14 427.56 103.51 Z" />
<path fill="#30651d" d=" M 213.62 107.58 C 216.77 104.97 221.09 108.43 220.72 112.04 C 220.71 114.42 221.22 117.44 218.97 119.03 C 216.33 120.80 211.46 119.42 211.49 115.75 C 211.37 112.97 210.65 109.17 213.62 107.58 Z" />
<path fill="#30651d" d=" M 311.03 108.99 C 312.60 106.40 315.96 107.52 318.45 107.32 C 318.40 110.83 318.71 114.36 318.29 117.86 C 316.84 120.74 313.34 119.48 310.82 119.49 C 309.96 116.11 308.53 112.04 311.03 108.99 Z" />
<path fill="#30651d" d=" M 82.68 108.70 C 87.83 108.49 93.00 108.62 98.16 108.56 C 100.26 112.18 102.34 115.81 104.17 119.58 C 100.99 119.51 97.68 120.15 94.59 119.33 C 90.33 116.14 86.28 112.62 82.68 108.70 Z" />
<path fill="#30651d" d=" M 148.73 108.56 C 153.86 108.64 158.99 108.42 164.11 108.77 C 161.15 112.26 157.50 115.04 154.03 118.00 C 151.07 120.96 146.49 119.31 142.78 119.57 C 144.45 115.74 146.42 112.05 148.73 108.56 Z" />
<path fill="#30651d" d=" M 383.43 115.56 C 385.41 115.14 387.41 114.73 389.42 114.40 C 389.15 116.44 389.99 119.07 387.92 120.40 C 386.36 120.32 384.85 119.94 383.34 119.63 C 383.35 118.27 383.38 116.92 383.43 115.56 Z" />
<path fill="#30651d" d=" M 831.74 143.71 C 833.31 140.32 837.05 136.89 840.97 138.90 C 843.16 141.36 842.31 144.95 842.59 147.95 C 842.80 156.33 843.04 166.16 849.96 172.06 C 855.12 177.71 864.06 178.20 868.39 184.70 C 870.21 189.80 863.88 191.39 860.22 192.26 C 851.34 192.48 842.41 192.77 833.57 191.72 C 832.02 185.63 830.85 179.44 828.87 173.46 C 825.64 163.69 827.38 152.85 831.74 143.71 Z" />
<path fill="#96ba39" d=" M 803.13 176.69 C 804.20 186.79 803.48 197.08 805.50 207.09 C 806.21 210.94 807.22 214.74 807.61 218.64 C 808.21 223.68 805.67 228.31 804.34 233.02 C 802.39 238.81 801.67 244.90 801.18 250.96 C 800.71 256.43 798.18 261.37 796.25 266.42 C 801.38 261.79 806.31 256.87 809.55 250.68 C 809.54 253.31 809.58 255.96 809.16 258.56 C 807.87 266.73 802.74 273.54 800.58 281.44 C 806.76 277.43 811.25 271.42 815.58 265.58 C 819.14 260.77 819.11 254.41 822.35 249.45 C 825.56 244.29 827.70 238.57 830.04 232.99 C 831.61 229.23 835.89 227.32 837.09 223.36 C 839.01 212.70 836.36 201.97 833.57 191.72 C 842.41 192.77 851.34 192.48 860.22 192.26 C 857.41 193.12 854.37 194.15 852.56 196.62 C 851.71 199.81 853.15 202.94 854.30 205.86 C 856.91 211.78 854.89 218.40 853.07 224.26 C 847.31 239.50 848.68 256.09 848.27 272.05 C 847.32 286.38 844.74 300.66 845.60 315.06 C 845.81 318.96 847.23 322.63 848.60 326.24 C 850.64 331.28 849.76 336.87 850.90 342.11 C 851.97 347.00 852.27 352.01 852.53 357.01 C 852.57 361.58 855.69 365.18 857.86 368.95 C 852.42 370.06 850.75 375.71 847.08 379.11 C 842.60 383.38 841.00 389.51 838.95 395.13 C 836.04 402.90 833.66 410.87 830.19 418.42 C 827.53 424.24 826.44 430.65 826.47 437.03 C 826.18 446.71 824.05 456.28 824.63 466.01 C 825.12 476.20 823.49 486.29 822.18 496.36 C 821.22 502.88 821.59 509.49 821.53 516.06 C 821.61 520.13 818.63 523.30 817.56 527.06 C 817.85 529.21 819.15 531.05 820.08 532.98 C 823.13 531.36 826.02 529.48 828.91 527.59 C 832.47 528.68 836.20 530.56 839.98 529.21 C 845.29 527.35 851.31 528.00 856.07 531.01 C 858.17 533.02 857.99 536.31 858.31 539.00 C 858.40 549.33 859.02 559.74 857.41 570.00 C 856.30 577.02 856.99 584.20 855.64 591.19 C 851.98 609.52 847.74 628.26 850.26 647.04 C 852.15 662.04 857.13 676.45 859.37 691.40 C 816.58 691.59 773.79 691.42 731.00 691.48 C 535.67 691.48 340.33 691.48 145.00 691.48 C 121.77 691.35 98.54 691.75 75.32 691.28 C 75.26 524.97 75.28 358.67 75.31 192.36 C 114.03 192.49 152.75 192.26 191.47 192.47 C 191.58 197.11 191.68 201.76 191.85 206.41 C 194.08 206.51 196.32 206.60 198.55 206.70 C 199.13 201.93 199.44 197.14 199.52 192.35 C 351.35 192.45 503.18 192.36 655.00 192.39 C 704.38 192.29 753.76 192.60 803.13 192.24 C 803.35 187.06 803.42 181.87 803.13 176.69 Z" />
<path fill="#96ba39" d=" M 919.05 196.61 C 918.30 195.00 918.25 193.19 917.99 191.46 C 928.58 193.12 939.33 192.17 950.00 192.39 C 997.16 192.25 1044.32 192.69 1091.48 192.16 C 1091.62 192.49 1091.89 193.15 1092.03 193.48 C 1091.00 194.93 1089.87 196.30 1088.83 197.73 C 1085.10 202.15 1085.48 209.38 1089.35 213.59 C 1094.02 218.89 1101.27 220.30 1107.84 221.78 C 1114.72 223.46 1121.95 223.14 1128.75 225.15 C 1135.72 227.14 1140.92 233.74 1141.47 240.92 C 1140.41 242.98 1138.76 244.63 1137.46 246.52 C 1134.88 249.66 1136.71 253.94 1137.73 257.35 C 1141.49 267.16 1145.37 276.94 1149.92 286.41 C 1152.06 291.04 1155.92 295.41 1155.21 300.86 C 1153.04 326.20 1151.90 351.60 1150.60 377.00 C 1149.97 386.40 1151.49 395.71 1151.91 405.08 C 1149.85 405.60 1147.73 405.96 1145.84 406.93 C 1142.95 411.13 1143.69 416.58 1143.23 421.41 C 1139.83 421.54 1136.39 421.35 1133.03 421.97 C 1128.84 422.92 1126.39 426.78 1123.53 429.62 C 1120.63 432.81 1116.67 434.64 1113.36 437.29 C 1109.97 439.92 1107.89 443.87 1104.41 446.39 C 1101.12 448.74 1097.27 450.10 1093.74 452.01 C 1082.83 457.74 1072.85 465.04 1062.21 471.24 C 1055.80 475.37 1050.62 481.15 1046.57 487.57 C 1040.23 497.48 1034.52 507.85 1030.20 518.82 C 1025.93 530.35 1023.35 542.94 1025.53 555.21 C 1026.20 559.95 1029.36 564.02 1029.42 568.90 C 1030.06 575.33 1028.08 582.80 1032.90 588.07 C 1035.16 585.81 1037.43 583.50 1040.16 581.78 C 1041.72 586.32 1042.05 591.93 1046.00 595.19 C 1050.68 598.04 1056.37 598.31 1061.70 598.79 C 1062.16 595.85 1062.66 592.74 1061.44 589.91 C 1059.49 583.73 1052.91 580.56 1050.72 574.54 C 1049.95 570.27 1050.08 565.81 1050.90 561.56 C 1051.43 559.18 1052.85 556.05 1055.77 556.31 C 1058.74 558.01 1060.90 560.76 1063.50 562.94 C 1065.43 560.20 1067.10 557.30 1068.77 554.39 C 1071.56 558.00 1075.18 560.94 1079.78 561.82 C 1079.94 566.94 1079.85 572.23 1081.75 577.08 C 1084.43 584.15 1089.73 589.87 1095.48 594.62 C 1109.32 606.03 1125.69 613.68 1140.58 623.55 C 1161.34 637.76 1182.98 651.21 1200.48 669.53 C 1206.89 676.61 1213.01 683.95 1219.19 691.24 C 1195.14 691.80 1171.06 691.33 1147.00 691.48 C 1092.33 691.48 1037.67 691.48 983.00 691.48 C 960.50 691.60 938.00 691.22 915.51 691.71 C 912.05 690.79 908.80 689.27 905.52 687.90 C 905.64 681.01 903.84 674.32 903.04 667.52 C 902.30 662.38 902.44 657.17 902.44 652.00 C 902.58 633.64 902.80 615.29 902.51 596.94 C 902.39 587.84 906.78 579.65 910.24 571.53 C 911.41 563.40 913.62 555.50 915.73 547.56 C 922.64 548.16 929.48 547.08 936.27 545.91 C 940.48 545.69 941.59 540.39 941.71 536.99 C 940.84 531.94 938.39 527.29 936.36 522.62 C 932.53 516.68 934.99 509.43 935.87 503.00 C 938.11 492.35 934.77 481.67 935.25 470.96 C 935.48 466.57 934.62 461.51 937.73 457.89 C 942.18 452.15 947.35 446.30 948.28 438.80 C 948.95 433.03 944.47 428.49 943.65 423.04 C 943.14 420.90 945.23 419.70 946.52 418.40 C 949.80 415.69 952.26 412.19 955.09 409.03 C 957.37 406.98 956.40 403.69 956.64 401.01 C 956.43 394.94 960.34 389.85 961.41 384.05 C 960.23 381.29 956.42 382.08 954.02 381.17 C 956.04 374.75 959.97 368.90 960.21 362.00 C 960.63 353.59 965.99 346.80 969.68 339.59 C 972.21 335.21 974.20 330.40 977.67 326.65 C 982.00 322.91 988.05 322.59 993.08 320.25 C 996.36 317.89 997.96 313.97 999.82 310.52 C 1001.84 306.86 1005.90 304.84 1007.87 301.16 C 1005.89 295.45 1005.21 289.16 1001.99 283.96 C 996.13 282.26 990.07 284.72 984.13 284.23 C 980.68 283.80 977.23 282.75 973.74 283.38 C 968.01 284.35 962.45 286.12 956.68 286.84 C 954.67 280.58 953.14 274.18 951.48 267.83 C 948.02 255.34 945.96 242.43 940.92 230.42 C 937.83 221.40 932.47 213.45 928.32 204.93 C 927.50 203.39 926.74 201.81 925.59 200.50 C 923.60 198.89 921.07 198.17 919.05 196.61 Z" />
<path fill="#96ba39" d=" M 1229.32 192.31 C 1255.21 192.46 1281.10 192.40 1307.00 192.35 L 1307.00 266.14 C 1300.05 258.66 1292.38 251.86 1284.10 245.89 C 1268.65 234.10 1252.64 222.89 1238.91 209.06 C 1234.05 204.70 1230.51 198.73 1229.32 192.31 Z" />
<path fill="#30651d" d=" M 157.83 206.86 C 166.24 202.21 176.75 201.76 185.53 205.64 C 191.57 208.40 198.75 208.66 204.84 205.90 C 212.81 202.37 222.34 201.87 230.33 205.62 C 237.32 208.55 243.11 213.55 249.50 217.51 C 254.11 220.54 259.81 218.96 264.94 218.85 C 262.14 223.27 256.71 227.44 258.78 233.34 C 267.61 258.01 277.14 282.46 285.85 307.19 C 286.72 309.38 287.46 312.17 290.11 312.77 C 291.64 313.83 294.85 313.80 294.72 316.21 C 294.95 317.97 293.58 319.31 292.48 320.48 C 283.77 328.77 272.02 333.69 260.03 334.33 C 246.45 335.25 232.61 330.59 222.36 321.65 C 220.84 320.33 219.46 318.82 218.50 317.03 C 220.14 313.60 222.96 310.84 224.30 307.24 C 231.66 287.51 238.76 267.68 246.08 247.94 C 248.62 240.68 253.23 233.36 251.06 225.38 C 241.18 223.22 232.50 217.69 222.80 215.05 C 217.39 213.48 212.12 215.97 207.41 218.38 C 202.38 221.05 196.52 221.02 190.99 220.59 C 183.55 220.18 177.78 213.23 170.04 214.72 C 159.46 216.49 150.56 223.28 140.04 225.38 C 139.66 228.47 139.07 231.70 140.21 234.71 C 149.94 260.43 159.34 286.28 168.76 312.13 C 171.05 312.89 173.44 313.50 175.52 314.78 C 175.83 316.39 175.73 318.23 174.45 319.42 C 158.93 335.23 132.93 338.98 113.43 328.54 C 108.22 325.57 102.40 322.50 99.48 317.01 C 101.20 313.64 104.11 310.97 105.36 307.34 C 113.13 286.13 121.00 264.97 128.77 243.76 C 130.28 239.32 132.72 235.01 132.85 230.23 C 132.97 225.25 127.83 222.80 125.58 218.92 C 130.21 218.21 135.04 220.24 139.50 218.57 C 145.98 215.26 151.28 210.05 157.83 206.86 Z" />
<path fill="#96ba39" d=" M 135.70 232.76 C 139.05 238.94 141.04 245.72 143.55 252.26 C 148.19 265.57 153.33 278.69 158.11 291.95 C 160.62 298.96 163.57 305.82 165.39 313.06 C 145.60 313.21 125.79 313.06 106.00 313.16 C 109.99 301.26 114.68 289.61 118.79 277.75 C 124.57 262.81 129.53 247.55 135.70 232.76 Z" />
<path fill="#96ba39" d=" M 243.18 263.32 C 247.22 253.24 249.85 242.57 254.93 232.93 C 256.31 236.04 257.59 239.19 258.75 242.38 C 267.32 265.98 276.24 289.46 284.73 313.09 C 264.82 313.11 244.90 313.19 224.99 313.07 C 230.55 296.31 237.05 279.88 243.18 263.32 Z" />
<path fill="#30651d" d=" M 99.16 386.61 C 101.53 386.35 103.92 386.58 106.30 386.65 C 106.42 398.32 106.69 410.01 106.13 421.66 C 103.58 421.58 101.03 421.51 98.49 421.45 C 98.20 411.94 98.41 402.43 98.29 392.92 C 98.52 390.87 97.89 388.35 99.16 386.61 Z" />
<path fill="#30651d" d=" M 273.37 386.46 C 279.05 386.52 284.74 386.51 290.42 386.59 C 290.53 388.34 290.65 390.09 290.77 391.85 C 287.61 392.05 284.45 392.17 281.29 392.28 C 281.31 395.16 281.30 398.04 281.28 400.93 C 284.04 401.21 286.81 401.46 289.57 401.75 C 289.49 403.28 289.40 404.82 289.31 406.36 C 286.65 406.43 284.00 406.50 281.35 406.56 C 281.35 409.64 281.33 412.73 281.28 415.82 C 284.42 415.97 287.58 416.12 290.73 416.31 C 290.64 418.03 290.56 419.75 290.49 421.48 C 284.78 421.59 279.07 421.56 273.36 421.56 C 273.26 409.86 273.24 398.16 273.37 386.46 Z" />
<path fill="#30651d" d=" M 388.34 386.48 C 394.04 386.49 399.75 386.49 405.45 386.58 C 405.53 388.31 405.63 390.05 405.73 391.78 C 402.52 392.01 399.31 392.18 396.11 392.32 C 396.13 395.25 396.14 398.17 396.17 401.11 C 399.01 401.26 401.84 401.39 404.68 401.55 C 404.59 403.11 404.50 404.67 404.42 406.23 C 401.68 406.49 398.94 406.74 396.21 407.07 C 396.16 409.99 396.14 412.92 396.10 415.85 C 399.17 415.96 402.23 416.07 405.30 416.17 C 405.42 417.92 405.54 419.68 405.67 421.44 C 399.88 421.57 394.10 421.56 388.31 421.57 C 388.29 409.87 388.23 398.18 388.34 386.48 Z" />
<path fill="#30651d" d=" M 411.30 386.47 C 413.82 386.49 416.34 386.49 418.87 386.47 C 419.58 394.91 418.75 403.39 419.30 411.84 C 419.23 414.49 422.40 416.24 424.71 415.07 C 427.21 414.27 427.22 411.23 427.40 409.08 C 427.55 401.63 427.31 394.18 427.39 386.73 C 429.84 386.70 432.29 386.69 434.75 386.70 C 434.77 393.82 434.81 400.93 434.82 408.05 C 434.73 411.27 434.89 414.95 432.57 417.52 C 427.82 422.93 418.19 422.98 413.43 417.56 C 411.17 414.96 411.22 411.30 411.09 408.07 C 411.05 400.87 411.29 393.67 411.30 386.47 Z" />
<path fill="#30651d" d=" M 133.63 387.69 C 137.68 385.68 142.22 386.77 146.06 388.70 C 145.55 389.90 145.05 391.11 144.53 392.32 C 141.19 392.79 136.50 392.08 134.80 395.78 C 132.65 400.64 132.71 406.54 134.63 411.47 C 136.17 415.56 141.15 415.12 144.70 415.73 C 145.11 417.15 145.51 418.56 145.92 419.99 C 141.91 421.20 137.45 422.45 133.45 420.53 C 127.47 418.00 125.00 411.10 125.02 405.03 C 124.79 398.43 126.82 390.33 133.63 387.69 Z" />
<path fill="#30651d" d=" M 157.38 387.31 C 164.05 384.82 172.27 388.76 174.30 395.64 C 176.13 401.92 176.30 409.23 173.10 415.11 C 169.11 422.58 157.10 423.90 151.87 417.12 C 147.78 412.17 147.59 405.24 148.36 399.16 C 149.01 394.02 152.20 388.85 157.38 387.31 Z" />
<path fill="#30651d" d=" M 180.72 386.54 C 183.55 386.84 187.49 385.77 189.11 388.87 C 192.84 394.50 195.56 400.76 199.59 406.22 C 199.95 399.74 199.70 393.24 200.14 386.76 C 202.37 386.69 204.60 386.65 206.83 386.62 C 206.57 398.40 207.00 410.17 206.69 421.95 C 204.83 421.68 202.93 421.55 201.12 421.01 C 199.40 419.99 198.54 418.05 197.48 416.45 C 194.18 410.58 191.08 404.59 187.46 398.91 C 187.45 406.42 187.56 413.93 187.38 421.45 C 185.15 421.44 182.92 421.42 180.70 421.39 C 180.57 409.77 180.53 398.16 180.72 386.54 Z" />
<path fill="#30651d" d=" M 220.24 388.25 C 225.31 385.71 231.09 386.74 236.38 387.92 C 236.11 389.48 235.83 391.05 235.57 392.61 C 230.93 392.77 224.77 391.18 221.67 395.69 C 218.79 400.99 218.78 407.96 221.74 413.24 C 223.19 415.97 226.64 415.72 229.23 416.32 C 229.37 413.93 229.66 411.53 229.37 409.15 C 227.98 406.49 225.62 404.40 224.58 401.52 C 228.70 401.29 232.84 401.31 236.97 401.33 C 237.26 407.52 237.30 413.73 236.82 419.92 C 230.92 421.50 224.28 422.48 218.66 419.41 C 213.18 416.52 211.33 409.79 211.47 404.01 C 211.58 397.80 214.15 390.85 220.24 388.25 Z" />
<path fill="#30651d" d=" M 244.56 388.58 C 249.49 386.21 255.38 386.02 260.61 387.44 C 265.11 388.63 268.67 393.18 268.07 397.90 C 267.52 401.96 263.78 404.25 260.87 406.61 C 263.36 411.63 266.51 416.29 268.85 421.39 C 266.10 421.22 262.93 422.13 260.43 420.77 C 257.13 416.71 255.47 411.59 252.35 407.39 C 251.90 412.13 251.80 416.90 251.73 421.66 C 249.22 421.59 246.71 421.55 244.20 421.52 C 243.26 413.71 243.79 405.84 243.61 398.00 C 243.65 394.85 243.38 391.57 244.56 388.58 Z" />
<path fill="#30651d" d=" M 299.51 388.53 C 303.81 385.49 309.28 386.70 313.92 388.14 C 313.57 389.64 313.22 391.15 312.87 392.66 C 309.98 392.54 307.10 392.44 304.22 392.41 C 303.82 394.16 303.44 395.92 303.07 397.68 C 306.57 400.24 310.69 402.08 313.61 405.37 C 317.50 410.64 314.16 419.18 307.94 420.88 C 303.70 422.30 299.20 421.37 295.08 420.01 C 295.37 418.18 295.66 416.36 295.96 414.54 C 299.45 414.76 303.81 416.44 306.57 413.43 C 307.77 408.62 302.25 406.96 299.27 404.63 C 293.48 401.30 293.97 391.87 299.51 388.53 Z" />
<path fill="#30651d" d=" M 322.41 388.48 C 326.57 385.58 331.80 386.83 336.35 387.91 C 336.25 389.45 336.16 391.00 336.07 392.56 C 332.94 392.86 328.91 391.36 326.56 394.06 C 326.34 395.32 326.35 396.59 326.61 397.85 C 329.43 400.65 333.40 401.95 336.15 404.84 C 340.16 409.63 337.87 417.77 332.29 420.28 C 327.90 422.49 322.88 421.32 318.31 420.43 C 318.45 418.69 318.59 416.96 318.75 415.23 C 322.46 415.31 326.17 415.06 329.82 414.31 C 329.24 412.30 329.76 409.58 327.78 408.29 C 324.89 405.87 320.82 404.75 318.79 401.41 C 317.45 396.93 318.17 391.17 322.41 388.48 Z" />
<path fill="#30651d" d=" M 352.34 387.21 C 358.05 385.19 365.11 387.56 367.94 393.03 C 371.38 399.80 371.16 408.19 367.98 415.02 C 364.10 422.69 352.16 423.93 346.72 417.29 C 342.35 411.81 342.24 404.11 343.58 397.52 C 344.37 392.81 347.79 388.70 352.34 387.21 Z" />
<path fill="#30651d" d=" M 441.48 388.34 C 447.68 386.91 454.60 385.34 460.56 388.45 C 464.80 390.50 466.83 395.92 465.18 400.29 C 463.76 403.14 460.75 404.62 458.25 406.37 C 461.08 411.28 464.00 416.15 466.36 421.31 C 463.56 421.41 460.76 421.47 457.96 421.50 C 455.35 416.47 452.76 411.42 449.60 406.72 C 449.46 411.66 449.45 416.61 449.18 421.55 C 446.57 421.54 443.97 421.56 441.38 421.60 C 441.52 410.51 441.41 399.43 441.48 388.34 Z" />
<path fill="#30651d" d=" M 478.40 387.48 C 483.61 385.62 490.20 386.76 493.71 391.27 C 496.70 395.14 497.33 400.29 497.28 405.03 C 497.05 410.65 495.39 417.19 489.97 419.95 C 483.25 423.80 473.48 420.63 471.12 413.03 C 468.22 404.42 468.90 391.61 478.40 387.48 Z" />
<path fill="#30651d" d=" M 502.36 388.19 C 508.14 386.72 514.47 385.60 520.18 388.01 C 528.09 391.20 527.79 405.02 519.54 407.57 C 516.56 408.62 513.37 408.73 510.27 409.09 C 510.23 413.26 510.16 417.43 509.91 421.60 C 507.36 421.57 504.82 421.57 502.28 421.58 C 502.22 410.45 502.13 399.32 502.36 388.19 Z" />
<path fill="#30651d" d=" M 530.72 386.74 C 536.41 386.48 542.11 386.47 547.81 386.77 C 547.81 388.49 547.82 390.21 547.84 391.94 C 544.78 392.10 541.72 392.20 538.66 392.29 C 538.63 395.24 538.63 398.19 538.65 401.15 C 541.33 401.28 544.03 401.39 546.72 401.50 C 546.70 403.16 546.70 404.81 546.70 406.48 C 544.02 406.55 541.35 406.64 538.68 406.76 C 538.62 409.80 538.60 412.84 538.60 415.88 C 541.68 416.01 544.76 416.14 547.84 416.28 C 547.79 418.04 547.75 419.80 547.72 421.56 C 542.09 421.56 536.46 421.55 530.83 421.57 C 530.32 409.97 530.50 398.34 530.72 386.74 Z" />
<path fill="#30651d" d=" M 553.68 386.63 C 556.31 386.66 558.94 386.71 561.58 386.80 C 561.77 396.17 560.84 405.62 562.29 414.93 C 564.78 415.24 568.80 415.99 569.46 412.60 C 570.36 403.99 569.45 395.29 569.83 386.64 C 572.31 386.64 574.78 386.65 577.26 386.68 C 577.33 395.45 577.85 404.27 577.11 413.02 C 575.31 424.27 555.57 424.51 553.87 413.02 C 553.09 404.26 553.62 395.42 553.68 386.63 Z" />
<path fill="#96ba39" d=" M 252.18 390.99 C 254.35 391.33 256.63 391.40 258.66 392.34 C 260.85 395.40 260.81 400.24 257.92 402.85 C 256.12 403.87 253.98 403.98 252.00 404.45 C 251.81 399.96 251.84 395.46 252.18 390.99 Z" />
<path fill="#96ba39" d=" M 449.91 390.83 C 452.01 391.39 454.56 391.20 456.29 392.68 C 458.10 395.20 458.22 398.96 456.66 401.63 C 455.25 404.28 451.87 403.79 449.37 404.23 C 449.30 399.75 449.34 395.27 449.91 390.83 Z" />
<path fill="#96ba39" d=" M 510.44 391.05 C 512.48 391.42 514.77 391.25 516.59 392.37 C 519.37 395.26 519.09 400.51 516.22 403.25 C 514.28 403.93 512.21 404.06 510.20 404.36 C 510.10 399.92 510.13 395.48 510.44 391.05 Z" />
<path fill="#96ba39" d=" M 159.54 392.47 C 161.68 391.93 164.59 392.01 165.66 394.33 C 167.76 398.53 167.49 403.48 167.12 408.03 C 166.67 410.80 166.25 414.72 162.91 415.42 C 160.34 416.20 158.11 413.91 157.24 411.72 C 156.01 408.27 156.23 404.52 156.33 400.92 C 156.53 397.91 156.93 394.42 159.54 392.47 Z" />
<path fill="#96ba39" d=" M 354.51 392.45 C 356.46 391.76 359.00 391.94 360.18 393.89 C 362.12 396.85 361.98 400.60 362.13 404.00 C 361.94 407.39 362.11 411.19 360.08 414.10 C 358.00 416.83 353.42 415.65 352.34 412.59 C 350.63 407.83 350.85 402.56 351.63 397.64 C 352.11 395.77 352.53 393.26 354.51 392.45 Z" />
<path fill="#96ba39" d=" M 481.51 392.40 C 484.21 390.70 487.42 393.07 488.12 395.80 C 489.36 400.35 489.10 405.18 488.58 409.83 C 488.31 412.44 486.63 415.41 483.73 415.60 C 481.19 416.02 479.29 413.66 478.72 411.44 C 477.69 407.39 477.76 403.14 478.20 399.02 C 478.54 396.58 479.14 393.68 481.51 392.40 Z" />
<path fill="#fcfdfa" d=" M 97.87 442.80 C 100.41 440.75 103.64 442.56 106.42 443.01 C 103.78 443.48 101.01 443.46 98.52 444.54 C 97.87 445.99 97.48 447.53 97.04 449.06 C 99.62 450.79 102.49 452.14 104.87 454.17 C 107.60 456.49 107.14 461.28 104.36 463.37 C 101.90 464.89 98.89 464.37 96.15 464.50 C 96.13 464.04 96.10 463.14 96.08 462.68 C 98.91 462.59 103.56 463.52 104.38 459.85 C 105.79 453.96 96.77 453.83 95.69 448.93 C 95.38 446.68 95.96 444.19 97.87 442.80 Z" />
<path fill="#fcfdfa" d=" M 112.49 442.48 C 115.42 442.43 118.44 441.90 121.30 442.76 C 125.36 445.86 125.12 451.51 124.75 456.08 C 124.62 458.99 123.68 462.30 120.91 463.76 C 117.83 465.22 113.25 465.04 111.42 461.74 C 107.87 455.81 109.14 448.21 112.49 442.48 Z" />
<path fill="#fcfdfa" d=" M 129.54 442.44 C 133.08 441.89 137.64 440.45 140.38 443.63 C 142.94 446.38 141.10 450.12 139.95 453.05 C 141.87 455.70 143.97 459.49 141.49 462.50 C 138.42 465.77 133.41 464.33 129.46 464.13 C 129.41 456.90 129.42 449.67 129.54 442.44 Z" />
<path fill="#fcfdfa" d=" M 146.33 442.31 C 149.38 442.30 152.47 442.05 155.49 442.61 C 158.14 444.14 158.79 447.60 158.21 450.40 C 157.39 453.40 153.97 454.21 151.61 455.62 C 154.01 458.63 156.57 461.55 158.33 465.00 C 154.05 462.76 151.51 458.54 148.45 455.00 C 148.19 458.09 148.15 461.20 148.13 464.31 C 147.55 464.32 146.41 464.33 145.84 464.34 C 145.87 456.99 145.68 449.63 146.33 442.31 Z" />
<path fill="#fcfdfa" d=" M 161.54 441.75 C 165.23 441.46 169.00 441.56 172.47 443.00 C 169.53 443.40 166.58 443.49 163.63 443.60 C 163.58 446.46 163.55 449.31 163.57 452.17 C 166.25 452.25 168.96 452.33 171.53 453.13 C 168.89 453.58 166.21 453.69 163.54 453.76 C 163.59 456.68 163.63 459.60 163.68 462.52 C 166.63 462.87 169.59 463.30 172.45 464.14 C 168.83 464.65 165.16 464.63 161.51 464.59 C 161.52 456.98 161.43 449.37 161.54 441.75 Z" />
<path fill="#96ba39" d=" M 113.82 444.79 C 115.35 442.92 118.04 443.76 120.13 443.42 C 122.85 448.08 123.35 453.67 122.13 458.87 C 121.54 461.22 119.47 463.29 116.89 462.80 C 113.60 463.34 112.19 459.59 111.66 457.00 C 111.45 452.92 110.73 448.03 113.82 444.79 Z" />
<path fill="#96ba39" d=" M 131.59 443.28 C 134.35 443.37 137.08 443.79 139.71 444.65 C 139.31 446.79 140.33 449.70 138.18 451.12 C 136.31 452.58 133.75 452.39 131.53 452.86 C 131.48 449.66 131.50 446.47 131.59 443.28 Z" />
<path fill="#96ba39" d=" M 148.43 443.21 C 150.69 443.58 153.46 442.95 155.23 444.78 C 156.87 447.43 156.50 451.33 153.81 453.17 C 151.95 453.56 150.03 453.60 148.14 453.75 C 148.13 450.23 148.14 446.71 148.43 443.21 Z" />
<path fill="#96ba39" d=" M 131.58 453.17 C 134.58 454.08 139.31 453.36 140.36 457.14 C 140.60 458.36 140.56 459.58 140.25 460.80 C 138.22 463.53 134.55 463.21 131.55 463.48 C 131.44 460.04 131.47 456.60 131.58 453.17 Z" />
<path fill="#fcfdfa" d=" M 682.38 465.14 C 684.33 465.01 687.06 463.58 688.41 465.71 C 689.51 467.00 690.04 469.16 688.59 470.43 C 687.20 472.67 684.31 471.20 682.23 471.13 C 682.24 469.13 682.29 467.13 682.38 465.14 Z" />
<path fill="#fcfdfa" d=" M 422.24 467.73 C 423.19 466.70 424.13 465.64 425.20 464.73 C 426.70 464.74 428.18 465.08 429.67 465.32 C 429.66 467.37 429.62 469.42 429.55 471.48 C 427.82 471.57 426.10 471.67 424.37 471.78 C 423.65 470.42 422.95 469.07 422.24 467.73 Z" />
<path fill="#fcfdfa" d=" M 293.40 468.29 C 295.15 468.29 296.90 468.29 298.65 468.30 C 298.91 490.88 298.67 513.47 298.79 536.05 C 299.28 546.81 290.40 556.79 279.84 558.19 C 279.77 557.34 279.62 555.63 279.55 554.77 C 283.31 552.59 287.37 550.44 289.69 546.60 C 293.93 540.27 293.18 532.25 293.21 525.00 C 293.29 506.10 292.97 487.19 293.40 468.29 Z" />
<path fill="#fcfdfa" d=" M 568.25 468.42 C 569.78 468.42 571.32 468.41 572.87 468.41 C 576.20 476.90 579.01 485.59 581.90 494.25 C 586.81 508.18 591.83 522.09 596.14 536.23 C 594.28 536.35 592.43 536.47 590.59 536.59 C 587.78 529.02 585.10 521.38 583.08 513.55 C 574.75 513.31 566.40 513.34 558.06 513.44 C 555.66 521.19 552.99 528.87 550.22 536.50 C 548.43 536.42 546.65 536.35 544.87 536.27 C 552.35 513.55 560.45 491.04 568.25 468.42 Z" />
<path fill="#fcfdfa" d=" M 399.30 470.35 C 400.76 469.59 402.23 468.84 403.71 468.11 C 404.80 472.87 404.47 477.78 404.38 482.63 C 407.80 482.70 411.29 482.42 414.62 483.34 C 414.63 484.37 414.43 485.36 414.02 486.31 C 410.83 486.56 407.63 486.44 404.44 486.46 C 404.46 498.32 404.46 510.18 404.40 522.04 C 404.48 525.27 404.66 529.24 407.67 531.21 C 409.82 532.18 412.22 532.39 414.54 532.76 C 414.54 533.85 414.55 534.94 414.56 536.03 C 411.81 536.19 408.96 536.63 406.29 535.75 C 402.20 534.45 399.16 530.36 399.27 526.03 C 398.91 512.94 399.60 499.82 398.90 486.74 C 396.43 486.34 393.98 485.79 391.59 485.10 C 393.60 483.27 396.22 482.61 398.85 482.26 C 399.22 478.30 399.25 474.32 399.30 470.35 Z" />
<path fill="#96ba39" d=" M 570.50 475.48 C 574.10 486.83 578.09 498.10 581.16 509.61 C 573.98 509.68 566.80 509.66 559.63 509.62 C 562.77 498.09 566.90 486.87 570.50 475.48 Z" />
<path fill="#fcfdfa" d=" M 143.62 485.25 C 150.87 482.02 158.99 481.71 166.76 482.60 C 170.71 483.22 173.92 485.81 176.92 488.28 C 180.54 485.59 184.40 482.71 189.08 482.38 C 193.40 482.13 198.12 481.75 202.04 483.97 C 206.73 486.41 209.50 491.73 209.45 496.94 C 209.49 510.09 209.50 523.24 209.44 536.38 C 207.63 536.37 205.82 536.36 204.02 536.35 C 203.94 523.54 204.16 510.71 203.94 497.90 C 204.08 493.39 202.19 488.29 197.52 486.82 C 191.73 485.48 184.90 486.01 180.53 490.49 C 178.88 491.77 179.44 494.08 179.25 495.91 C 179.26 509.39 179.26 522.87 179.26 536.35 C 177.43 536.36 175.60 536.36 173.78 536.37 C 173.73 523.30 173.87 510.22 173.70 497.15 C 173.92 492.54 170.83 487.87 166.24 486.79 C 160.52 484.92 154.42 486.08 148.84 487.86 C 148.93 504.07 149.05 520.28 148.84 536.49 C 147.09 536.45 145.33 536.42 143.58 536.39 C 143.53 519.35 143.49 502.30 143.62 485.25 Z" />
<path fill="#fcfdfa" d=" M 223.46 484.93 C 230.08 482.47 237.33 481.25 244.30 482.88 C 250.11 484.36 254.65 489.86 254.55 495.93 C 254.60 507.95 254.58 519.97 254.58 531.98 C 255.06 534.30 252.32 534.82 250.72 535.52 C 243.06 537.87 234.35 538.31 226.91 534.98 C 217.97 530.49 217.44 516.84 224.35 510.31 C 230.95 503.60 240.93 503.15 249.62 501.42 C 249.53 496.53 249.32 490.36 244.37 487.75 C 237.78 484.56 230.29 487.01 223.76 489.16 C 223.65 487.74 223.55 486.33 223.46 484.93 Z" />
<path fill="#fcfdfa" d=" M 361.90 485.91 C 367.76 480.27 377.09 481.71 383.82 484.92 C 383.72 486.24 383.63 487.57 383.55 488.90 C 378.72 487.35 373.67 485.31 368.53 486.68 C 363.23 489.19 360.63 496.74 364.66 501.47 C 369.19 506.83 377.46 506.57 382.09 511.92 C 385.95 515.59 386.38 521.42 385.23 526.34 C 383.41 532.91 376.65 537.11 370.05 537.28 C 365.29 537.72 360.66 536.29 356.29 534.58 C 356.47 533.13 356.66 531.68 356.86 530.24 C 362.08 532.09 367.74 533.57 373.25 532.18 C 378.33 530.84 381.14 525.07 380.38 520.12 C 379.66 516.93 377.54 514.00 374.48 512.72 C 370.00 510.58 364.87 509.38 361.30 505.69 C 355.78 500.57 356.27 490.78 361.90 485.91 Z" />
<path fill="#fcfdfa" d=" M 446.79 487.78 C 452.89 480.56 464.11 480.80 471.79 485.19 C 471.25 486.23 470.70 487.28 470.17 488.33 C 464.54 486.36 457.10 484.55 452.35 489.33 C 446.45 494.41 445.76 502.76 445.64 510.03 C 445.83 517.17 447.02 525.28 452.76 530.19 C 457.69 534.50 464.85 532.48 470.44 530.73 C 470.55 532.11 470.67 533.50 470.79 534.90 C 464.99 537.31 458.21 538.57 452.33 535.72 C 445.41 531.95 441.38 524.28 440.61 516.61 C 439.59 506.77 439.97 495.64 446.79 487.78 Z" />
<path fill="#fcfdfa" d=" M 479.76 486.60 C 484.81 482.34 491.74 481.98 498.04 482.30 C 504.01 482.44 509.68 486.68 511.46 492.38 C 512.15 496.21 511.89 500.13 511.94 504.01 C 511.80 514.04 511.84 524.08 511.90 534.12 C 504.04 537.18 495.12 538.74 486.93 536.04 C 482.91 534.80 479.48 531.67 478.00 527.73 C 476.17 521.49 477.19 513.81 482.45 509.47 C 489.10 503.67 498.35 503.06 506.65 501.58 C 506.81 496.69 506.86 490.77 502.02 487.98 C 495.81 484.59 488.20 486.62 481.96 489.02 C 481.41 488.42 480.31 487.21 479.76 486.60 Z" />
<path fill="#fcfdfa" d=" M 604.37 485.12 C 611.42 482.12 619.22 481.63 626.77 482.50 C 630.78 483.07 634.10 485.54 637.17 488.02 C 641.14 485.58 645.16 482.62 649.98 482.33 C 654.81 482.00 660.07 482.08 664.20 484.97 C 668.19 487.47 669.95 492.36 669.77 496.92 C 669.70 510.08 669.86 523.24 669.67 536.41 C 667.95 536.42 666.24 536.44 664.54 536.48 C 664.51 523.63 664.61 510.78 664.51 497.94 C 664.61 493.25 662.27 488.12 657.52 486.64 C 653.10 485.89 648.19 485.79 644.23 488.20 C 642.13 489.45 639.52 491.11 639.76 493.93 C 639.62 508.13 639.81 522.35 639.70 536.56 C 637.95 536.49 636.20 536.44 634.47 536.39 C 634.36 523.58 634.48 510.76 634.43 497.95 C 634.50 494.20 633.27 490.08 629.82 488.13 C 623.64 484.40 616.06 485.79 609.53 487.73 C 609.21 503.95 609.47 520.19 609.36 536.42 C 607.56 536.40 605.77 536.38 603.99 536.37 C 603.87 522.23 604.08 508.10 603.85 493.97 C 603.83 491.01 604.14 488.06 604.37 485.12 Z" />
<path fill="#fcfdfa" d=" M 715.62 482.76 C 722.50 481.36 729.69 482.16 736.14 484.89 C 736.36 501.59 736.14 518.30 736.25 535.00 C 736.72 542.23 735.30 550.57 728.96 555.02 C 721.22 560.50 711.12 558.43 702.64 556.09 C 702.62 554.81 702.62 553.54 702.64 552.28 C 708.52 551.85 714.05 555.44 719.94 553.99 C 725.17 553.16 729.47 548.90 730.47 543.73 C 730.86 540.96 730.77 538.15 730.84 535.36 C 724.59 537.29 717.54 538.47 711.37 535.67 C 704.55 532.46 701.04 524.93 699.84 517.84 C 699.05 510.44 699.06 502.70 701.87 495.69 C 704.20 489.63 709.23 484.40 715.62 482.76 Z" />
<path fill="#fcfdfa" d=" M 749.19 486.54 C 755.11 481.64 763.33 481.59 770.53 482.79 C 776.66 483.95 781.03 489.79 781.16 495.91 C 781.45 507.64 781.12 519.38 781.32 531.11 C 781.80 533.61 779.25 534.90 777.28 535.53 C 769.93 537.84 761.70 538.16 754.42 535.50 C 746.53 532.01 744.40 521.62 748.14 514.37 C 750.14 509.75 754.54 506.71 759.22 505.23 C 764.53 503.21 770.20 502.54 775.79 501.72 C 775.75 497.00 776.56 491.06 771.92 488.14 C 765.45 484.33 757.59 486.97 750.97 489.02 C 750.52 488.40 749.63 487.16 749.19 486.54 Z" />
<path fill="#fcfdfa" d=" M 96.66 482.67 C 98.36 482.65 100.07 482.65 101.77 482.65 C 102.48 495.74 101.66 508.86 102.26 521.95 C 102.23 527.05 105.90 531.96 111.11 532.57 C 115.82 532.90 120.79 533.09 125.24 531.23 C 126.55 526.27 125.77 521.06 125.96 516.00 C 126.13 504.85 125.57 493.68 126.29 482.54 C 128.20 482.99 131.96 481.77 131.32 484.95 C 131.46 499.66 131.23 514.39 131.42 529.10 C 131.39 530.94 131.45 533.50 129.31 534.21 C 121.93 537.60 113.08 538.45 105.33 535.81 C 99.71 533.84 96.65 527.76 96.63 522.06 C 96.63 508.93 96.57 495.80 96.66 482.67 Z" />
<path fill="#fcfdfa" d=" M 312.67 482.62 C 314.36 482.62 316.04 482.63 317.74 482.66 C 318.49 495.78 317.70 508.93 318.29 522.05 C 318.37 526.78 321.54 531.49 326.30 532.50 C 331.46 533.17 336.81 532.86 341.72 531.04 C 342.24 514.93 341.46 498.80 342.15 482.70 C 343.86 482.68 345.58 482.67 347.31 482.68 C 347.49 498.15 347.29 513.62 347.44 529.09 C 347.51 531.01 347.36 533.48 345.22 534.25 C 340.17 536.58 334.48 537.40 328.95 537.31 C 324.48 537.06 319.57 536.06 316.45 532.57 C 313.15 528.93 312.49 523.74 312.57 519.02 C 312.67 506.89 312.52 494.75 312.67 482.62 Z" />
<path fill="#fcfdfa" d=" M 423.76 483.23 C 425.63 483.23 427.50 483.24 429.38 483.26 C 429.17 500.97 429.33 518.68 429.28 536.39 C 427.41 536.38 425.55 536.37 423.70 536.37 C 423.73 518.65 423.59 500.94 423.76 483.23 Z" />
<path fill="#fcfdfa" d=" M 682.78 483.20 C 684.63 483.21 686.49 483.22 688.37 483.23 C 688.38 500.95 688.43 518.67 688.34 536.39 C 686.50 536.37 684.67 536.35 682.84 536.33 C 682.80 518.62 682.92 500.91 682.78 483.20 Z" />
<path fill="#96ba39" d=" M 717.36 486.38 C 721.46 485.31 726.03 485.29 730.00 486.90 C 731.60 488.42 731.21 490.92 731.36 492.93 C 731.12 504.95 731.51 516.98 731.18 528.98 C 731.30 531.93 728.11 532.59 725.88 533.21 C 720.37 534.22 713.79 533.62 709.96 529.05 C 704.74 523.03 704.95 514.49 704.97 506.99 C 705.30 498.77 708.67 488.98 717.36 486.38 Z" />
<path fill="#96ba39" d=" M 230.60 510.67 C 236.17 507.07 242.93 506.04 249.40 505.32 C 249.38 514.35 249.71 523.41 249.18 532.44 C 244.25 533.57 239.12 534.10 234.10 533.34 C 230.38 532.51 226.56 530.01 225.76 526.05 C 224.69 520.63 225.68 513.95 230.60 510.67 Z" />
<path fill="#96ba39" d=" M 485.77 512.79 C 491.02 507.08 499.35 506.50 506.53 505.23 C 506.81 514.19 506.62 523.16 506.62 532.12 C 500.85 533.76 494.33 534.75 488.64 532.39 C 481.15 529.24 481.18 518.38 485.77 512.79 Z" />
<path fill="#96ba39" d=" M 758.10 510.18 C 763.58 506.97 769.99 505.98 776.22 505.36 C 776.09 514.38 776.74 523.44 775.80 532.43 C 770.33 533.69 764.47 534.34 759.00 532.87 C 749.62 529.63 749.90 514.59 758.10 510.18 Z" />
<path fill="#fcfdfa" d=" M 449.40 544.16 C 453.02 541.62 457.59 542.24 461.72 542.66 C 464.54 543.04 467.81 544.94 467.83 548.13 C 468.21 551.11 465.40 553.23 462.93 554.21 C 456.72 556.29 450.06 555.33 443.64 555.49 C 443.62 554.82 443.57 553.46 443.55 552.78 C 450.33 552.12 457.99 553.77 463.64 548.94 C 460.72 543.74 454.08 546.12 449.40 544.16 Z" />
<path fill="#30651d" d=" M 360.37 561.32 C 364.15 559.79 369.12 561.14 370.97 564.96 C 373.38 569.88 373.09 576.85 368.54 580.49 C 364.52 583.86 357.69 582.58 354.99 578.15 C 351.88 572.40 354.11 563.90 360.37 561.32 Z" />
<path fill="#30651d" d=" M 723.00 562.02 C 727.71 558.58 735.46 561.37 736.91 567.03 C 738.57 573.02 737.78 579.41 739.61 585.37 C 742.09 594.42 746.86 603.68 744.25 613.26 C 742.76 619.98 737.95 625.20 732.82 629.47 C 737.60 630.60 742.82 630.74 747.20 628.18 C 756.18 623.42 762.12 614.76 767.23 606.27 C 769.78 602.14 771.38 597.34 774.75 593.77 C 776.43 593.22 778.21 593.15 779.96 592.93 C 780.81 596.18 781.90 599.56 781.22 602.96 C 780.01 609.01 776.80 614.40 773.56 619.57 C 768.37 627.79 761.58 635.26 752.94 639.91 C 743.38 644.91 731.43 644.82 721.76 640.18 C 715.58 637.20 711.71 631.31 708.04 625.78 C 702.92 631.07 698.17 637.15 691.29 640.25 C 685.78 642.79 679.09 643.18 673.61 640.38 C 669.62 638.35 667.11 634.48 664.40 631.08 C 660.77 634.88 657.63 639.36 652.99 642.01 C 647.97 644.90 641.36 643.61 637.22 639.76 C 633.73 636.54 632.01 632.00 630.11 627.78 C 625.67 631.77 621.43 636.16 616.11 639.00 C 612.81 640.75 609.34 642.14 605.95 643.66 C 606.84 647.82 608.19 652.60 605.50 656.42 C 602.63 661.25 596.26 661.23 591.37 660.50 C 588.89 660.06 585.39 659.04 585.36 655.97 C 586.00 653.61 588.17 652.03 589.13 649.81 C 589.62 648.00 589.66 646.12 589.87 644.28 C 585.36 642.68 580.62 641.26 576.91 638.13 C 572.97 634.94 570.57 630.39 568.12 626.07 C 562.34 632.51 555.83 639.39 546.92 641.02 C 539.80 642.23 531.48 641.21 526.31 635.70 C 521.70 630.90 520.93 623.99 519.63 617.78 C 515.97 624.47 513.60 632.51 507.04 637.04 C 502.60 640.24 495.50 639.01 493.08 633.88 C 488.72 625.37 492.07 615.66 491.42 606.60 C 485.36 618.16 478.64 630.06 467.83 637.84 C 461.95 642.23 453.85 643.58 446.97 640.92 C 442.40 638.99 439.53 634.73 436.22 631.26 C 433.12 634.78 430.30 638.68 426.39 641.36 C 420.84 645.20 412.68 643.64 408.42 638.59 C 405.78 635.48 404.27 631.65 402.54 628.02 C 397.75 633.10 392.89 638.48 386.35 641.32 C 379.61 644.44 371.29 644.01 365.01 640.01 C 360.22 636.84 357.65 631.50 354.94 626.65 C 350.13 631.66 345.23 636.99 338.66 639.67 C 329.94 643.28 318.58 640.94 313.08 632.94 C 305.51 623.03 306.53 609.75 307.74 598.07 C 305.47 597.92 303.20 597.78 300.94 597.66 C 296.68 605.17 292.83 612.92 288.18 620.20 C 281.89 629.46 273.46 637.85 262.72 641.70 C 252.44 645.78 240.06 645.57 230.69 639.29 C 222.18 633.18 218.05 622.23 218.77 611.96 C 219.64 598.82 224.43 585.36 234.32 576.31 C 241.31 569.86 252.40 567.20 261.00 571.97 C 265.48 574.31 267.59 579.39 268.22 584.16 C 269.22 592.09 265.03 600.01 258.82 604.77 C 255.90 607.13 249.74 607.34 248.95 602.78 C 247.35 595.75 254.74 590.42 253.53 583.30 C 248.78 583.40 244.20 585.44 241.44 589.39 C 235.01 597.80 233.18 609.04 234.80 619.34 C 235.72 623.84 238.36 628.67 243.11 629.93 C 251.75 632.28 261.53 630.21 268.34 624.35 C 278.19 616.27 283.67 604.48 289.46 593.45 C 292.64 587.48 290.41 580.48 292.41 574.23 C 293.43 570.99 295.16 567.63 298.24 565.95 C 300.94 564.88 304.05 566.05 305.86 568.21 C 308.48 571.11 308.81 575.18 309.48 578.86 C 313.40 578.42 317.48 577.61 321.36 578.73 C 325.09 580.08 326.96 584.21 326.71 588.00 C 327.19 594.99 322.64 601.02 322.56 607.94 C 322.44 613.31 322.41 619.07 325.05 623.91 C 326.87 627.12 331.18 627.21 334.32 626.27 C 338.88 624.61 342.13 620.78 345.20 617.20 C 349.38 612.03 353.70 606.42 354.55 599.61 C 355.42 595.67 355.31 590.54 359.32 588.31 C 363.56 585.60 371.01 588.13 370.51 593.83 C 369.51 603.10 366.99 612.54 369.24 621.85 C 370.04 625.13 372.31 628.77 376.08 628.85 C 382.77 629.78 387.86 624.45 391.97 619.97 C 398.11 612.72 403.29 604.55 406.68 595.66 C 409.86 587.62 415.22 580.22 422.60 575.59 C 427.54 572.42 433.92 571.81 439.46 573.67 C 444.45 575.64 448.01 580.66 448.48 585.98 C 448.71 589.07 447.81 592.09 447.09 595.06 C 448.53 597.76 451.04 600.51 450.04 603.80 C 448.79 609.88 446.78 616.23 448.60 622.42 C 449.27 625.07 451.46 627.47 454.33 627.59 C 458.67 628.07 462.51 625.35 465.51 622.52 C 472.48 615.85 477.67 607.56 482.00 599.00 C 484.08 595.15 486.00 591.16 488.78 587.75 C 491.35 584.51 496.54 583.50 499.87 586.18 C 503.11 588.80 504.70 592.95 505.21 597.00 C 506.21 604.75 504.10 612.44 504.38 620.21 C 510.27 609.46 513.58 597.59 518.46 586.40 C 519.79 583.20 522.21 579.84 526.02 579.72 C 531.32 579.64 537.13 584.25 536.34 589.94 C 535.74 599.95 532.28 609.85 533.89 619.94 C 534.35 622.99 535.95 626.34 539.24 627.11 C 545.48 629.03 551.70 625.26 555.77 620.76 C 561.11 614.78 566.53 608.28 568.29 600.25 C 571.28 588.80 577.64 577.05 588.71 571.72 C 596.69 567.94 608.23 568.57 613.30 576.69 C 619.06 586.56 614.25 600.21 604.58 605.66 C 601.76 607.19 596.90 606.21 596.42 602.57 C 595.48 598.31 598.09 594.56 599.71 590.85 C 600.88 588.48 600.79 585.77 600.90 583.20 C 597.61 583.62 594.05 584.13 591.57 586.57 C 585.06 592.85 582.00 602.04 581.87 610.95 C 581.80 616.11 581.85 621.77 584.84 626.20 C 588.91 631.06 596.00 631.07 601.80 630.63 C 613.07 629.28 621.30 620.15 627.24 611.21 C 632.58 603.82 633.65 594.34 638.91 586.91 C 642.03 582.46 645.80 578.35 650.44 575.47 C 655.39 572.32 661.77 571.96 667.26 573.80 C 671.87 575.30 674.96 579.70 675.98 584.30 C 676.77 587.57 675.71 590.90 675.68 594.20 C 675.90 597.23 678.63 599.75 678.01 602.90 C 677.00 608.25 675.04 613.55 675.65 619.08 C 675.99 621.83 676.34 625.29 679.08 626.78 C 682.64 628.54 687.14 627.68 690.19 625.22 C 695.86 620.84 700.25 615.03 704.03 609.00 C 708.03 602.46 712.07 595.84 714.56 588.54 C 716.50 582.99 717.49 577.19 718.53 571.43 C 719.22 568.02 720.10 564.25 723.00 562.02 Z" />
<path fill="#fcfdfa" d=" M 122.48 572.49 C 123.52 572.47 125.58 572.44 126.61 572.43 C 126.98 593.85 126.82 615.28 126.59 636.70 C 119.57 639.49 111.12 640.65 104.36 636.55 C 98.03 632.78 96.01 624.92 95.63 618.04 C 95.11 609.59 97.51 599.90 105.06 595.09 C 110.14 591.52 116.68 592.07 122.44 593.28 C 122.59 586.35 122.43 579.42 122.48 572.49 Z" />
<path fill="#96ba39" d=" M 429.71 586.75 C 431.76 586.06 434.87 585.63 435.99 588.02 C 437.46 591.68 436.45 595.77 435.60 599.47 C 433.16 608.60 430.42 618.00 424.58 625.61 C 423.17 627.66 420.71 628.37 418.49 629.13 C 414.61 618.69 416.46 606.98 421.11 597.11 C 423.13 593.10 425.64 588.94 429.71 586.75 Z" />
<path fill="#96ba39" d=" M 655.23 588.21 C 657.39 586.13 661.20 585.41 663.59 587.51 C 665.37 591.27 664.36 595.57 663.39 599.41 C 661.61 605.74 659.63 612.05 656.99 618.08 C 655.04 622.81 651.94 627.25 647.07 629.28 C 643.20 623.12 643.92 615.50 644.94 608.64 C 646.77 601.23 649.34 593.41 655.23 588.21 Z" />
<path fill="#96ba39" d=" M 726.60 589.84 C 729.81 596.26 730.97 603.71 729.77 610.80 C 729.19 614.41 726.86 618.31 722.87 618.65 C 719.94 619.11 719.26 615.60 718.38 613.56 C 717.19 611.10 717.96 608.48 719.28 606.28 C 722.19 601.02 724.34 595.39 726.60 589.84 Z" />
<path fill="#fcfdfa" d=" M 138.35 595.07 C 143.84 592.82 149.96 591.36 155.82 592.97 C 159.83 594.13 163.45 597.13 164.58 601.24 C 165.80 605.72 165.28 610.41 165.39 615.00 C 165.24 621.34 165.57 627.69 165.27 634.03 C 165.36 636.74 162.47 637.51 160.38 638.10 C 154.94 639.40 149.08 639.84 143.67 638.16 C 139.67 636.79 135.84 633.37 135.57 628.93 C 135.27 624.73 135.55 619.92 138.80 616.83 C 144.47 611.02 153.02 609.77 160.75 609.27 C 160.51 605.29 161.37 600.05 157.41 597.59 C 151.56 593.78 144.47 596.44 138.32 597.96 C 138.33 597.24 138.34 595.79 138.35 595.07 Z" />
<path fill="#fcfdfa" d=" M 179.89 594.04 C 184.74 591.04 190.65 592.42 195.54 594.52 C 195.52 595.58 195.49 596.66 195.47 597.74 C 190.97 596.38 185.57 594.10 181.34 597.39 C 178.09 599.59 177.81 603.93 178.74 607.41 C 181.97 612.65 188.89 612.92 193.31 616.71 C 198.50 620.73 198.99 629.00 194.91 633.98 C 191.16 638.99 184.08 640.08 178.32 638.58 C 175.83 638.13 172.06 636.98 172.76 633.72 C 177.94 633.99 183.47 637.41 188.43 634.41 C 194.43 631.53 194.75 621.20 188.41 618.57 C 183.75 615.91 177.56 614.54 175.02 609.32 C 173.30 603.96 174.25 596.68 179.89 594.04 Z" />
<path fill="#96ba39" d=" M 107.44 597.49 C 111.71 594.27 117.36 595.39 122.31 595.54 C 122.57 608.82 122.63 622.12 122.28 635.40 C 116.86 635.31 110.42 637.07 105.96 633.02 C 100.98 628.55 100.16 621.31 100.28 615.00 C 100.28 608.62 101.75 601.26 107.44 597.49 Z" />
<path fill="#96ba39" d=" M 143.36 617.37 C 148.13 613.37 154.67 612.63 160.66 612.08 C 160.80 619.84 160.99 627.63 160.43 635.38 C 154.90 636.42 148.63 637.71 143.59 634.43 C 138.14 630.51 138.54 621.66 143.36 617.37 Z" />
<path fill="#96ba39" d=" M 594.24 650.12 C 595.56 649.51 597.49 651.41 595.71 652.25 C 593.78 653.74 591.16 650.52 594.24 650.12 Z" />
<path fill="#30651d" d=" M 915.51 691.71 C 938.00 691.22 960.50 691.60 983.00 691.48 C 1037.67 691.48 1092.33 691.48 1147.00 691.48 C 1171.06 691.33 1195.14 691.80 1219.19 691.24 C 1223.85 696.53 1228.37 701.94 1232.81 707.42 C 1225.33 707.34 1217.71 706.74 1210.38 708.58 C 1203.83 709.81 1202.31 717.33 1198.13 721.51 C 1202.95 725.31 1208.34 728.45 1214.30 730.07 C 1224.60 733.05 1235.28 734.74 1245.98 735.34 C 1253.77 735.80 1261.40 733.82 1269.11 733.08 C 1262.10 739.19 1254.11 744.06 1245.55 747.67 C 1236.53 752.09 1226.32 755.97 1220.87 765.00 L 960.78 765.00 C 964.60 762.80 968.95 759.11 968.30 754.22 C 966.67 747.51 960.40 743.64 954.45 741.15 C 956.57 739.02 958.84 736.96 960.46 734.41 C 962.10 731.59 961.29 728.19 961.79 725.13 C 963.30 722.31 966.05 720.34 967.35 717.40 C 968.40 713.25 965.51 709.21 962.37 706.81 C 958.34 703.55 952.30 706.15 948.55 702.46 C 944.10 697.95 937.87 702.47 932.57 701.39 C 927.65 700.16 922.84 698.55 917.87 697.54 C 917.11 695.57 916.33 693.63 915.51 691.71 Z" />
</svg>
