<?xml version="1.0" encoding="UTF-8" standalone="no"?>
<svg
   xmlns:dc="http://purl.org/dc/elements/1.1/"
   xmlns:cc="http://creativecommons.org/ns#"
   xmlns:rdf="http://www.w3.org/1999/02/22-rdf-syntax-ns#"
   xmlns:svg="http://www.w3.org/2000/svg"
   xmlns="http://www.w3.org/2000/svg"
   viewBox="0 0 298.98666 305.76001"
   height="305.76001"
   width="298.98666"
   xml:space="preserve"
   id="svg2"
   version="1.1"><metadata
     id="metadata8"><rdf:RDF><cc:Work
         rdf:about=""><dc:format>image/svg+xml</dc:format><dc:type
           rdf:resource="http://purl.org/dc/dcmitype/StillImage" /></cc:Work></rdf:RDF></metadata><defs
     id="defs6" /><g
     transform="matrix(1.3333333,0,0,-1.3333333,0,305.76)"
     id="g10"><g
       transform="scale(0.1)"
       id="g12"><path
         id="path14"
         style="fill:#0c7a62;fill-opacity:1;fill-rule:nonzero;stroke:none"
         d="m 2154.98,356.988 h 17.15 c 12.19,0 17.81,-3.59 16.09,-11.699 -1.83,-9.711 -8.02,-13.219 -20.41,-13.219 h -17.99 l 5.16,24.918 z m -7.25,-36.5 h 13.7 L 2176.25,284 h 15.31 l -16.54,37.211 c 13.5,1.328 24.14,7.687 27.17,22.93 3.67,17.398 -5.35,24.39 -26.31,24.39 h -32.66 L 2126.07,284 h 14.07 l 7.59,36.488 z m -43,5.782 c 7.09,34.66 38,60.699 71.52,60.699 33.81,0 54.08,-26.039 47.01,-60.699 -7.19,-34.911 -38.22,-60.84 -71.6,-60.84 -33.61,0 -53.91,25.929 -46.93,60.84 z m -17.5,0 c -8.91,-43.559 20.58,-73.891 61.73,-73.891 41.18,0 82.92,30.332 91.82,73.891 8.91,43.589 -20.58,73.921 -61.76,73.921 -41.27,0 -83,-30.332 -91.79,-73.921 v 0" /><path
         id="path16"
         style="fill:#0c7a62;fill-opacity:1;fill-rule:nonzero;stroke:none"
         d="M 1397.81,203.879 1183.54,99.1016 1159.9,88.1406 c 11.76,-23.6914 36,-38.0117 68.34,-38.0117 62.13,0 92.56,36.0625 113.73,87.4531 l 51.72,-6.41 C 1372.81,57.1484 1300.55,1.25 1218.48,1.25 c -79.28,0 -136.21,59.4297 -118.81,145.52 17.62,86.332 98.88,145.82 178.06,145.82 66.57,0 104.36,-34.41 120.08,-88.711 z m -102.44,-2.629 31.68,15.602 c -14.18,17.418 -27.09,26.679 -59.35,26.679 -54.11,0 -101.59,-39.652 -113.07,-96.761 -1.25,-5.211 -1.74,-10.211 -2.11,-15.211 l 142.17,69.691 h 0.68 v 0" /><path
         id="path18"
         style="fill:#0c7a62;fill-opacity:1;fill-rule:nonzero;stroke:none"
         d="M 422.52,348.422 C 377.891,402.609 334.805,421.789 265.117,421.789 147.062,421.789 28.2539,328.711 4.23047,210.949 -19.8164,93.2383 61.3867,0 179.324,0 278.906,0 404.902,69.4102 431.887,201.578 l 7.078,35.082 H 235.242 L 224.719,185.25 H 370.137 C 349.082,102.051 268.938,51.1484 189.773,51.1484 c -92.3003,0 -144.8707,73.0706 -127.2261,159.8006 17.8047,86.86 99.7501,159.629 192.1331,159.629 58.496,0 83.777,-24.469 121.98,-61.828 l 45.86,39.672 v 0" /><path
         id="path20"
         style="fill:#0c7a62;fill-opacity:1;fill-rule:nonzero;stroke:none"
         d="M 825.762,7.03125 858.984,170.129 c 8.809,43.09 47.032,73.402 84.649,73.402 37.422,0 63.357,-30.312 54.765,-73.402 L 965.059,7.03125 h 52.501 l 33.08,163.09775 c 14.97,73.402 -27.55,122.461 -97.066,122.461 -69.804,0 -132.304,-49.059 -147.148,-122.461 L 773.32,7.03125 h 52.442 v 0" /><path
         id="path22"
         style="fill:#0c7a62;fill-opacity:1;fill-rule:nonzero;stroke:none"
         d="m 1419.63,7.03125 h 52.46 l 26.62,130.55075 c 15.51,75.637 51.41,105.949 102.07,105.949 h 7.54 l 9.96,49.059 h -11.87 c -35.12,0 -61.76,-10.602 -85,-37.828 h -1.35 l 6.6,31.797 h -50.14 L 1419.63,7.03125 v 0" /><path
         id="path24"
         style="fill:#0c7a62;fill-opacity:1;fill-rule:nonzero;stroke:none"
         d="m 1688.77,349.02 c -3.36,-15.68 4.84,-30.821 25.27,-30.821 20.08,0 34.53,15.141 37.82,30.821 3.04,15.66 -5.1,30.781 -25.3,30.781 -20.29,0 -34.65,-15.121 -37.79,-30.781 z M 1676.7,7.03125 1733.85,286.559 h -52.44 L 1624.51,7.03125 h 52.19 v 0" /><path
         id="path26"
         style="fill:#0c7a62;fill-opacity:1;fill-rule:nonzero;stroke:none"
         d="m 1758.95,7.03125 h 146.64 c 50.56,0 93.73,25.05855 104.49,78.00785 20.47,100.2109 -164.22,79.8199 -154.36,128.1799 4.69,17.5 13.3,24.57 38.87,24.57 h 132.32 l 9.95,48.77 h -123.31 c -62.44,0 -103.12,-26.071 -113.06,-75.61 -19.73,-96.75 164.76,-76.89 154.31,-128.3201 -3.43,-17.3203 -15.01,-26.7695 -39.35,-26.7695 h -146.56 l -9.94,-48.82815 v 0" /><path
         id="path28"
         style="fill:#0c7a62;fill-opacity:1;fill-rule:nonzero;stroke:none"
         d="M 765.918,203.879 551.555,99.1016 527.93,88.1406 c 11.758,-23.6914 35.996,-38.0117 68.359,-38.0117 62.012,0 92.578,36.0625 113.828,87.4531 l 51.602,-6.41 C 740.859,57.1484 668.555,1.25 586.316,1.25 c -79.168,0 -136.238,59.4297 -118.621,145.52 17.715,86.332 98.887,145.82 178.086,145.82 66.524,0 104.336,-34.41 120.137,-88.711 z m -102.52,-2.629 31.68,15.602 c -14.258,17.418 -27.187,26.679 -59.453,26.679 -54.199,0 -101.582,-39.652 -113.164,-96.761 -1.035,-5.211 -1.707,-10.211 -1.895,-15.211 l 142.071,69.691 h 0.761 v 0" /><path
         id="path30"
         style="fill:#0c7a62;fill-opacity:1;fill-rule:nonzero;stroke:none"
         d="m 1339.38,1422.61 246.64,99.46 58.02,-99.46 h -304.66 z m 699.1,687.35 c -148.5,136.36 -369.53,192.29 -613.95,182.09 -2.97,-0.19 -6.05,-0.19 -8.92,-0.34 -198.19,-6.53 -413.48,-57.48 -624.223,-155.66 C 203.762,1862.03 -124.836,1322.59 57.7344,931.191 240.332,539.762 864.629,444.801 1452.27,718.609 c 287.89,134.262 513.57,332.211 647.42,545.181 24.37,34.71 49.67,81.32 49.67,109.06 0,77.08 -54.57,141.46 -126.96,156.68 -11.99,2.91 -19.72,4.16 -27.56,5.71 -8.43,1.81 -229.88,40.91 -413.69,39.55 -258.88,-1.94 -543.9,-70.83 -543.9,-70.83 l 162.93,-128.25 c 17.91,-13.87 56.23,-40.55 56.97,-41.09 1.15,-1.05 2.3,-1.9 3.34,-2.87 9.02,-6.27 19.74,-9.92 31.35,-9.92 4.37,0 14.33,1.51 15.21,1.51 53.81,6.36 181.13,25.55 292.48,26.94 101.68,1.31 216.76,-12.24 217.23,-13.31 22.77,-5.77 39.8,-26.49 39.8,-51.46 0,-10.09 -2.85,-19.53 -7.73,-27.5 0.29,-1.2 -14.73,-21.16 -21.25,-29.63 C 1725.7,1119.96 1591.95,1022.36 1434,948.73 979.883,736.988 500.723,803.469 363.73,1097.32 c -137,293.8 120.059,703.77 574.141,915.52 177.869,82.99 359.789,123.21 523.419,123.68 5.74,0 11.56,0.18 17.3,0.27 34.48,-0.45 68.75,-4.68 100.71,-7.58 301.97,-36.58 573.49,-204.57 601.27,-486.62 0,-14.64 12.07,-26.66 26.72,-26.66 14.82,0 26.69,12.02 26.69,26.66 22.8,190.98 -43.47,327.93 -195.5,467.37 v 0" /></g></g></svg>