<?xml version="1.0" encoding="UTF-8"?>
<!DOCTYPE svg PUBLIC "-//W3C//DTD SVG 1.1//EN" "http://www.w3.org/Graphics/SVG/1.1/DTD/svg11.dtd">
<!-- Creator: CorelDRAW 2017 -->
<svg xmlns="http://www.w3.org/2000/svg" xml:space="preserve" width="262.483mm" height="210mm" version="1.1" style="shape-rendering:geometricPrecision; text-rendering:geometricPrecision; image-rendering:optimizeQuality; fill-rule:evenodd; clip-rule:evenodd"
viewBox="0 0 26248.34 21000"
 xmlns:xlink="http://www.w3.org/1999/xlink">
 <defs>
  <style type="text/css">
   <![CDATA[
    .fil0 {fill:none}
    .fil1 {fill:#2B2A29;fill-rule:nonzero}
   ]]>
  </style>
 </defs>
 <g id="Layer_x0020_1">
  <metadata id="CorelCorpID_0Corel-Layer"/>
  <rect class="fil0" width="26248.34" height="21000"/>
  <g id="_1008118480">
   <path class="fil1" d="M10887.53 6603.85c73.84,205.98 112.71,443.06 112.71,695.67 0,19.43 0,40.81 -1.95,60.24 0,277.88 -167.12,522.73 -404.19,629.6 -305.09,134.08 -701.5,246.79 -1140.67,316.74 -328.4,50.53 -639.32,71.9 -915.25,66.07l-483.86 1140.67c-19.43,38.86 -56.36,66.06 -102.99,66.06 -27.21,0 -54.42,-9.72 -73.85,-29.15l-818.09 -674.29c-23.32,-19.43 -36.92,-50.53 -36.92,-81.62 0,-36.92 13.6,-69.96 44.69,-91.33l3272.38 -3035.3c137.97,-126.32 322.57,-204.04 524.67,-204.04 209.87,0 402.25,83.55 546.05,219.59l728.71 742.3c19.43,19.43 29.15,46.64 29.15,75.79 0,62.18 -50.53,110.76 -110.76,110.76l-1169.82 -7.77 -0.01 0.01z"/>
   <path class="fil1" d="M16381 12785.23c46.64,-54.41 75.79,-124.37 75.79,-202.09 0,-167.12 -136.02,-303.14 -303.14,-303.14 -79.68,0 -149.63,31.09 -200.15,79.67 -217.64,204.04 -460.54,322.57 -788.94,328.41 -308.97,5.83 -588.8,-114.65 -788.95,-318.69 -58.3,-54.41 -130.19,-89.38 -215.69,-89.38 -91.33,0 -165.18,36.91 -219.59,101.05 -188.49,196.26 -448.89,318.68 -740.36,318.68 -293.43,0 -551.87,-110.76 -738.42,-308.97 -54.42,-68.02 -137.97,-110.76 -233.19,-110.76 -87.44,0 -167.12,36.91 -219.59,95.21 -204.03,204.04 -479.97,324.52 -788.94,324.52 -307.03,0 -592.68,-128.26 -792.83,-330.35 -58.3,-54.41 -130.19,-89.38 -213.76,-89.38 -167.11,0 -303.14,136.02 -303.14,303.14 0,73.84 33.04,157.39 77.73,209.86 275.94,318.69 687.91,518.84 1144.56,518.84 326.46,0 639.32,-93.27 886.1,-268.16 50.53,-40.81 118.54,-64.13 188.5,-64.13 77.73,0 147.68,27.21 202.09,75.79 215.7,157.4 485.8,256.5 775.34,256.5 301.2,0 575.19,-101.05 798.67,-272.04 52.47,-40.81 112.7,-66.07 184.6,-66.07 73.85,0 132.14,21.37 186.55,64.12 246.78,172.95 547.99,273.99 870.56,273.99 454.72,0 872.51,-211.81 1156.22,-526.6l-0.02 -0.02z"/>
   <path class="fil1" d="M15586.23 4305.03c0,-95.21 -77.73,-174.89 -174.9,-174.89l-1.94 0 -4453.86 1.94c-97.16,0 -176.83,73.85 -176.83,171.01l0 378.93c0,97.16 81.62,182.66 178.78,182.66l1950.99 -1.94 -359.5 4999.89c-650.97,-180.72 -1187.3,-625.71 -1480.73,-1222.28l-1768.33 0c-97.16,0 -169.06,83.55 -169.06,178.77l-5.83 460.54c0,97.16 85.5,178.77 182.66,178.77l466.37 1.95c427.51,1474.9 1787.77,2553.38 3400.64,2553.38 1614.81,0 2982.84,-1086.26 3408.4,-2561.16l444.99 -1.94c97.17,0 176.83,-79.68 176.83,-174.9l-1.94 -458.59c0,-97.17 -73.85,-176.83 -171.01,-176.83l-1733.35 -1.95c-295.36,619.89 -825.87,1047.4 -1494.33,1233.94l-345.89 -5009.61 1945.16 1.94c97.16,0 180.72,-69.95 180.72,-167.12l1.94 -392.52 0.02 0.01z"/>
   <path class="fil1" d="M14264.84 3799.79c66.06,0 120.48,-52.47 120.48,-120.48 0,-34.98 -15.55,-68.01 -40.81,-91.33l-647.09 -489.69 650.98 -507.18c21.37,-21.37 34.98,-54.41 34.98,-87.44 0,-66.07 -54.41,-118.53 -120.48,-118.53l-1618.7 -1.95c-97.16,0 -172.95,81.62 -172.95,178.77l-5.83 1068.77c0,97.16 79.67,174.89 176.83,174.89l1622.59 -5.83z"/>
   <path class="fil1" d="M15360.81 6592.2c-71.9,205.98 -112.71,443.05 -112.71,695.67 0,21.37 1.95,40.8 1.95,60.23 0,277.88 167.12,522.73 404.19,631.55 305.09,132.14 703.45,244.85 1140.67,314.8 328.4,52.47 639.32,71.9 915.25,66.07l483.86 1140.67c21.38,38.86 56.36,66.07 102.99,66.07 29.16,0 54.42,-9.72 73.85,-27.21l818.09 -676.24c23.32,-19.43 36.92,-48.58 36.92,-81.62 0,-36.92 -13.6,-69.95 -44.69,-89.38l-3272.38 -3035.31c-137.97,-128.25 -320.63,-205.98 -522.73,-205.98 -211.81,0 -404.19,83.56 -547.99,221.53l-728.71 740.37c-17.48,19.43 -29.15,46.63 -29.15,75.78 0,62.18 50.53,110.77 112.71,110.77l1167.87 -7.78 0.01 0.01z"/>
   <path class="fil1" d="M7539.37 18515.78c0,-5.84 0,-7.78 -1.95,-11.67 0,-1.94 -1.94,-3.89 -3.89,-3.89 0,0 -1.94,-1.94 -3.88,-1.94 -3.89,0 -9.72,3.89 -17.49,7.78 -7.78,5.83 -17.49,11.66 -29.15,19.43 -11.66,5.83 -25.26,11.66 -40.81,17.48 -15.54,5.84 -34.98,7.78 -56.35,7.78 -27.21,0 -50.53,-3.89 -69.96,-13.6 -21.37,-9.72 -36.92,-23.32 -52.47,-40.8 -13.6,-17.49 -23.32,-40.81 -31.09,-66.07 -7.78,-27.21 -11.67,-58.3 -11.67,-93.28 0,-33.04 3.89,-64.12 11.67,-91.33 7.77,-27.2 19.43,-50.52 33.04,-69.95 13.6,-19.43 31.09,-33.04 50.52,-42.75 21.38,-9.72 42.75,-15.54 66.07,-15.54 23.32,0 42.75,3.88 58.3,9.71 15.54,5.84 29.15,11.67 40.81,17.49 11.66,5.83 19.43,13.6 27.2,17.49 7.78,5.83 13.6,9.72 17.49,9.72 1.94,0 3.89,-1.95 5.83,-1.95 0,-1.94 1.94,-3.88 3.89,-5.83 0,-3.89 1.94,-5.83 1.94,-9.72 0,-5.83 0,-9.72 0,-15.54 0,-3.89 0,-9.72 0,-13.6 0,-1.94 0,-5.83 -1.94,-7.77 0,-3.89 -1.95,-5.84 -1.95,-7.78 -1.94,-1.94 -3.88,-5.83 -7.77,-9.72 -3.89,-1.94 -9.72,-7.78 -21.38,-13.6 -9.72,-5.83 -19.43,-11.66 -33.03,-15.54 -11.67,-3.89 -27.21,-7.78 -40.81,-11.67 -15.54,-1.94 -31.09,-3.88 -46.64,-3.88 -34.98,0 -68.01,5.83 -97.16,19.43 -29.15,13.6 -54.41,31.09 -75.79,56.35 -21.37,25.27 -38.86,54.42 -50.52,89.39 -11.66,36.92 -17.49,75.79 -17.49,122.43 0,42.74 5.83,81.61 17.49,116.59 9.72,33.04 25.26,62.18 46.64,85.5 19.43,23.32 44.69,40.8 71.9,52.47 29.15,11.66 62.18,17.48 97.16,17.48 19.43,0 38.86,-1.94 56.35,-5.83 17.49,-3.89 33.04,-7.78 46.64,-13.6 13.6,-5.83 23.32,-11.66 33.04,-17.49 9.72,-5.83 15.54,-9.71 17.49,-11.66 1.94,-3.89 5.83,-5.83 5.83,-7.77 1.94,-1.95 1.94,-3.89 3.89,-7.78 0,-1.94 0,-3.89 0,-7.78 0,-3.88 1.94,-7.77 1.94,-11.66 0,-7.78 -1.94,-11.66 -1.94,-15.54l0 0.01zm608.22 -441.11c0,-1.95 -1.94,-5.83 -3.88,-7.78 -1.95,-1.94 -5.84,-3.89 -9.72,-3.89 -1.95,-1.94 -7.78,-1.94 -13.6,-3.88 -5.83,0 -13.6,0 -21.38,0 -9.72,0 -15.54,0 -21.37,0 -5.83,1.94 -9.72,1.94 -13.6,3.88 -3.89,0 -5.83,1.95 -7.78,3.89 -1.94,1.95 -3.88,3.89 -5.83,7.78l-182.66 507.17c-1.94,5.84 -3.89,11.67 -3.89,15.55 0,3.88 1.95,5.83 3.89,7.77 1.94,1.95 5.83,3.89 9.72,3.89 5.83,1.94 13.6,1.94 21.37,1.94 7.78,0 13.6,0 19.44,-1.94 3.88,0 7.77,0 9.72,-1.94 3.88,-1.95 5.83,-1.95 7.77,-3.89 0,-1.95 1.95,-3.89 1.95,-7.78l44.69 -130.19 227.35 0 46.64 132.14c1.94,1.94 3.89,5.83 3.89,5.83 1.94,1.94 3.89,3.89 5.83,3.89 3.89,1.94 7.77,1.94 11.66,3.88 5.83,0 13.6,0 21.38,0 9.72,0 15.54,0 21.37,-1.94 5.83,0 9.72,-1.94 11.67,-3.89 1.94,-1.94 1.94,-3.89 1.94,-7.77 0,-3.89 0,-9.72 -3.89,-15.55l-182.66 -507.17 -0.02 0zm44.7 332.29l-190.44 0 93.27 -272.05 0 0 97.17 272.05zm-103 -511.07c-3.89,0 -7.77,0 -9.72,1.95 -3.88,0 -5.83,1.94 -7.77,3.89 -3.89,0 -5.83,3.88 -7.78,5.83l-95.22 95.22c-1.94,3.88 -3.88,5.83 -3.88,7.77 0,1.95 0,3.89 1.94,3.89 1.94,1.94 3.89,3.89 7.77,3.89 3.89,0 9.72,0 15.55,0 7.77,0 13.6,0 19.43,0 5.83,0 9.72,0 13.6,-1.95 1.94,0 5.83,-1.94 7.77,-1.94 1.95,-1.94 3.89,-3.89 5.83,-5.83l68.02 -71.9 64.12 73.84c1.94,0 3.89,1.95 5.83,3.89 1.95,0 3.89,1.94 7.78,1.94 1.94,1.95 5.83,1.95 11.66,1.95 5.83,0 11.67,0 19.43,0 7.78,0 11.67,0 15.55,0 3.88,0 7.77,-1.95 9.72,-1.95 0,-1.94 1.94,-3.88 0,-5.83 0,-1.94 -1.95,-3.89 -3.89,-7.77l-89.39 -95.22c-3.89,-1.95 -5.83,-5.83 -7.78,-5.83 -1.94,-1.95 -3.88,-3.89 -7.77,-3.89 -1.94,-1.95 -5.83,-1.95 -9.72,-1.95 -3.89,0 -9.72,0 -15.54,0 -5.84,0 -11.67,0 -15.55,0l0.01 0zm1212.57 198.21c0,-5.83 0,-9.72 -1.95,-13.6 -1.94,-5.83 -3.88,-7.78 -7.77,-11.66 -1.95,-1.95 -5.83,-3.89 -9.72,-5.84 -3.89,0 -7.78,-1.94 -11.66,-1.94l-46.64 0c-7.78,0 -13.6,1.94 -19.43,3.89 -5.83,0 -9.72,3.89 -13.6,5.83 -5.83,3.89 -9.72,9.72 -13.6,15.54 -3.89,5.83 -7.78,13.6 -9.72,21.38l-163.23 394.47 -1.94 0 -155.46 -396.42c-3.89,-7.77 -5.83,-13.6 -9.72,-19.43 -3.89,-5.83 -7.77,-9.72 -13.6,-13.6 -3.88,-3.88 -9.72,-5.83 -17.48,-7.77 -5.84,-1.95 -13.6,-3.89 -23.32,-3.89l-44.7 0c-7.77,0 -15.54,3.89 -21.37,7.78 -5.83,5.83 -9.72,13.59 -9.72,25.26l0 503.29c0,1.94 1.94,3.88 1.94,5.83 1.95,1.94 3.89,3.89 5.84,3.89 1.94,0 5.83,1.94 11.66,1.94 3.89,1.94 9.72,1.94 17.49,1.94 5.83,0 11.66,0 17.48,-1.94 3.89,0 7.78,-1.94 11.67,-1.94 1.94,0 3.89,-1.95 5.83,-3.89 0,-1.95 1.94,-3.89 1.94,-5.83l0 -476.09 0 0 184.61 478.03c0,1.94 0,3.89 1.94,3.89 1.95,1.94 3.89,3.89 7.78,3.89 1.94,1.94 5.83,1.94 9.72,1.94 3.88,1.94 9.72,1.94 15.54,1.94 5.83,0 9.72,0 13.6,0 3.89,-1.94 7.77,-1.94 11.66,-3.88 1.95,0 3.89,-1.95 5.83,-1.95 1.95,-1.94 3.89,-3.89 3.89,-5.83l192.38 -478.03 1.95 0 0 476.09c0,1.94 0,3.88 1.94,5.83 0,1.94 1.94,3.89 5.83,3.89 1.95,0 5.83,1.94 9.72,1.94 5.83,1.94 11.67,1.94 17.49,1.94 7.77,0 13.6,0 17.49,-1.94 5.83,0 7.77,-1.94 11.66,-1.94 1.94,0 3.89,-1.95 5.83,-3.89 1.94,-1.95 1.94,-3.89 1.94,-5.83l0 -503.29 -0.02 0zm656.81 -19.43c-1.95,-1.95 -3.89,-5.83 -5.84,-7.78 -1.94,-1.94 -3.88,-3.89 -7.77,-3.89 -3.89,-1.94 -7.78,-1.94 -13.6,-3.88 -5.83,0 -13.6,0 -23.32,0 -7.77,0 -15.54,0 -21.37,0 -3.89,1.94 -9.72,1.94 -11.67,3.88 -3.88,0 -7.77,1.95 -9.72,3.89 -1.94,1.95 -1.94,3.89 -3.88,7.78l-182.67 507.17c-1.94,5.84 -3.88,11.67 -3.88,15.55 0,3.88 0,5.83 1.94,7.77 3.89,1.95 5.83,3.89 11.66,3.89 5.84,1.94 11.67,1.94 19.44,1.94 7.77,0 15.54,0 19.43,-1.94 5.83,0 9.72,0 11.66,-1.94 3.89,-1.95 5.83,-1.95 5.83,-3.89 1.95,-1.95 3.89,-3.89 3.89,-7.78l44.69 -130.19 227.36 0 46.63 132.14c1.95,1.94 1.95,5.83 3.89,5.83 1.95,1.94 3.89,3.89 5.83,3.89 1.95,1.94 5.84,1.94 11.67,3.88 5.83,0 11.66,0 21.37,0 7.78,0 15.54,0 21.38,-1.94 3.88,0 7.77,-1.94 9.72,-3.89 3.88,-1.94 3.88,-3.89 3.88,-7.77 0,-3.89 -1.94,-9.72 -3.88,-15.55l-182.66 -507.17 -0.01 0zm42.75 332.29l-190.44 0 95.22 -272.05 0 0 95.22 272.05zm880.28 180.72c-1.95,-3.89 -3.89,-11.67 -7.78,-21.38l-48.58 -120.48c-5.83,-13.6 -11.66,-25.26 -17.48,-36.92 -5.84,-11.66 -11.67,-21.37 -17.49,-29.15 -7.78,-7.77 -13.6,-15.54 -21.38,-21.37 -7.77,-5.83 -15.54,-11.67 -25.26,-15.54 17.49,-5.84 31.1,-11.67 44.69,-21.38 11.67,-7.78 23.32,-17.49 33.04,-27.21 9.72,-11.66 15.55,-25.26 21.38,-38.86 3.89,-15.54 7.77,-31.09 7.77,-50.52 0,-17.49 -3.88,-34.98 -7.77,-50.53 -5.83,-15.54 -15.55,-29.15 -25.27,-42.75 -11.66,-11.66 -25.26,-21.37 -40.8,-29.15 -17.49,-7.77 -34.98,-13.6 -56.36,-17.48 -7.77,0 -15.54,-1.95 -25.26,-1.95 -7.78,0 -19.43,-1.94 -33.04,-1.94l-116.59 0c-5.83,0 -13.6,1.94 -19.43,7.77 -5.83,3.89 -7.78,11.67 -7.78,23.32l0 505.24c0,1.94 0,3.88 1.95,5.83 0,1.94 1.94,3.89 5.83,3.89 1.94,0 5.83,1.94 11.66,1.94 3.89,1.94 9.72,1.94 17.49,1.94 5.83,0 11.66,0 17.49,-1.94 3.88,0 7.77,-1.94 9.72,-1.94 3.88,0 5.83,-1.95 5.83,-3.89 1.94,-1.95 1.94,-3.89 1.94,-5.83l0 -233.19 48.58 0c17.49,0 31.1,1.94 42.75,7.78 11.66,5.83 23.32,11.66 31.1,21.37 9.72,7.78 17.48,19.43 23.31,31.09 5.84,11.67 11.67,25.27 17.49,40.81l50.53 128.26c1.94,3.88 1.94,5.83 3.88,7.77 1.95,1.95 3.89,3.89 7.78,5.83 1.94,1.95 5.83,1.95 9.72,1.95 5.83,1.94 11.66,1.94 19.43,1.94 7.78,0 13.6,0 19.43,-1.94 5.83,0 9.72,0 11.66,-1.95 1.95,0 3.89,-1.94 5.84,-3.88 0,-1.95 0,-3.89 0,-5.84 0,-1.94 0,-5.83 0,-9.72l-0.02 0zm-114.65 -338.12c-3.89,11.66 -11.66,21.38 -21.37,29.15 -7.78,9.72 -19.44,15.54 -34.99,19.43 -13.6,5.83 -29.15,7.78 -48.58,7.78l-71.9 0 0 -184.61 62.18 0c13.6,0 25.26,0 34.98,1.95 7.78,0 15.55,1.94 23.32,3.88 23.32,5.84 38.86,17.49 48.58,31.1 9.72,15.54 13.6,33.04 13.6,54.41 0,13.6 -1.94,25.26 -5.83,36.92l0.01 -0.01zm732.59 -174.89c-1.95,-1.95 -3.89,-5.83 -5.84,-7.78 -1.94,-1.94 -3.88,-3.89 -7.77,-3.89 -3.89,-1.94 -7.78,-1.94 -13.6,-3.88 -5.83,0 -13.6,0 -23.32,0 -7.77,0 -15.54,0 -21.37,0 -5.83,1.94 -9.72,1.94 -13.6,3.88 -1.95,0 -5.83,1.95 -7.78,3.89 -1.94,1.95 -1.94,3.89 -3.89,7.78l-182.66 507.17c-3.88,5.84 -3.88,11.67 -3.88,15.55 0,3.88 0,5.83 1.94,7.77 1.94,1.95 5.83,3.89 11.66,3.89 5.84,1.94 11.67,1.94 19.43,1.94 7.78,0 15.55,0 19.43,-1.94 5.84,0 9.72,0 11.67,-1.94 1.94,-1.95 3.89,-1.95 5.83,-3.89 1.94,-1.95 1.94,-3.89 3.89,-7.78l44.69 -130.19 227.36 0 46.63 132.14c1.95,1.94 1.95,5.83 3.89,5.83 0,1.94 1.94,3.89 5.83,3.89 1.95,1.94 5.83,1.94 11.67,3.88 5.83,0 11.66,0 21.37,0 7.78,0 15.54,0 19.43,-1.94 5.83,0 9.72,-1.94 11.66,-3.89 1.95,-1.94 3.89,-3.89 3.89,-7.77 0,-3.89 -1.94,-9.72 -3.89,-15.55l-182.66 -507.17 -0.01 0zm42.75 332.29l-190.43 0 95.22 -272.05 0 0 95.21 272.05zm1610.93 -312.86c0,-5.83 0,-9.72 -1.94,-13.6 -1.95,-5.83 -3.89,-7.78 -7.78,-11.66 -1.94,-1.95 -5.83,-3.89 -9.72,-5.84 -3.89,0 -7.77,-1.94 -11.66,-1.94l-46.64 0c-7.78,0 -13.6,1.94 -19.43,3.89 -5.83,0 -9.72,3.89 -13.6,5.83 -5.83,3.89 -9.72,9.72 -13.6,15.54 -3.89,5.83 -5.83,13.6 -9.72,21.38l-163.23 394.47 -1.94 0 -155.46 -396.42c-3.88,-7.77 -5.83,-13.6 -9.72,-19.43 -3.88,-5.83 -7.77,-9.72 -11.66,-13.6 -5.83,-3.88 -11.66,-5.83 -19.43,-7.77 -5.83,-1.95 -13.6,-3.89 -23.32,-3.89l-44.69 0c-7.78,0 -15.54,3.89 -21.38,7.78 -5.83,5.83 -9.72,13.59 -9.72,25.26l0 503.29c0,1.94 1.95,3.88 1.95,5.83 1.94,1.94 3.89,3.89 5.83,3.89 1.94,0 5.83,1.94 11.66,1.94 3.89,1.94 9.72,1.94 17.49,1.94 5.83,0 11.66,0 17.49,-1.94 3.88,0 7.77,-1.94 11.66,-1.94 1.94,0 3.89,-1.95 5.83,-3.89 0,-1.95 1.95,-3.89 1.95,-5.83l0 -476.09 0 0 184.6 478.03c0,1.94 0,3.89 1.94,3.89 1.95,1.94 3.89,3.89 7.78,3.89 1.94,1.94 5.83,1.94 9.72,1.94 3.89,1.94 9.72,1.94 15.54,1.94 5.83,0 9.72,0 13.6,0 5.83,-1.94 7.78,-1.94 11.67,-3.88 1.94,0 5.83,-1.95 5.83,-1.95 1.94,-1.94 3.89,-3.89 3.89,-5.83l192.38 -478.03 1.94 0 0 476.09c0,1.94 0,3.88 1.94,5.83 0,1.94 1.95,3.89 5.84,3.89 1.94,0 5.83,1.94 9.71,1.94 5.84,1.94 11.67,1.94 17.49,1.94 7.78,0 13.6,0 17.49,-1.94 5.83,0 9.72,-1.94 11.66,-1.94 3.89,0 5.83,-1.95 5.83,-3.89 1.95,-1.95 1.95,-3.89 1.95,-5.83l0 -503.29 -0.02 0zm841.41 -21.38c0,-1.94 0,-3.88 -1.94,-5.83 -1.94,-1.94 -3.89,-3.89 -5.83,-3.89 -1.95,-1.94 -5.83,-1.94 -11.67,-1.94 -3.88,-1.94 -9.72,-1.94 -15.54,-1.94 -7.77,0 -13.6,0 -17.49,1.94 -5.83,0 -9.72,0 -11.66,1.94 -3.89,0 -5.83,1.95 -5.83,3.89 -1.95,1.95 -1.95,3.89 -1.95,5.83l0 334.24c0,23.32 -3.88,46.64 -9.72,64.12 -5.83,17.49 -13.59,33.04 -25.26,46.64 -11.66,11.66 -25.26,21.37 -42.75,27.21 -15.54,5.83 -34.98,9.72 -56.35,9.72 -19.43,0 -38.87,-3.89 -54.42,-9.72 -17.48,-5.84 -31.09,-15.55 -42.75,-29.15 -11.66,-11.67 -21.37,-27.21 -27.2,-46.64 -5.83,-19.43 -9.72,-40.81 -9.72,-66.07l0 -330.35c0,-1.94 0,-3.88 0,-5.83 -1.95,-1.94 -3.89,-3.89 -5.83,-3.89 -3.89,-1.94 -7.78,-1.94 -11.67,-1.94 -5.83,-1.94 -11.66,-1.94 -17.48,-1.94 -7.78,0 -13.6,0 -17.49,1.94 -5.83,0 -7.78,0 -11.66,1.94 -1.95,0 -3.89,1.95 -5.84,3.89 0,1.95 -1.94,3.89 -1.94,5.83l0 340.06c0,33.04 5.83,62.18 15.54,87.44 9.72,25.27 23.32,46.64 40.81,64.13 17.48,17.49 38.86,29.15 64.12,38.86 23.32,7.78 50.53,13.6 81.62,13.6 33.04,0 62.18,-5.83 87.44,-13.6 27.21,-9.72 48.58,-23.32 66.07,-42.75 17.49,-17.49 33.04,-38.86 42.75,-66.07 9.72,-25.26 13.6,-54.41 13.6,-87.44l0 -334.24 0.04 0.01zm843.36 1.95c0,-1.95 -1.94,-3.89 -1.94,-5.83 -1.95,-1.95 -3.89,-3.89 -5.84,-3.89 -3.88,-1.95 -7.77,-3.89 -11.66,-3.89 -3.89,0 -9.72,0 -17.49,0 -7.77,0 -13.6,0 -17.48,0 -3.89,0 -7.78,1.94 -11.67,3.89 -1.94,0 -3.88,1.94 -5.83,3.89 0,1.94 -1.94,3.88 -1.94,5.83l0 295.36c0,23.32 0,46.64 0,69.96 0,23.32 1.94,46.64 1.94,69.95l0 0c-7.77,-13.59 -13.6,-27.2 -21.37,-40.8 -5.84,-11.66 -11.67,-25.26 -19.43,-38.86 -5.84,-13.6 -13.6,-27.21 -21.38,-40.81 -7.77,-13.6 -15.54,-29.15 -23.32,-42.75l-128.25 -240.96c-3.89,-7.77 -7.78,-15.54 -11.67,-21.37 -5.83,-5.84 -9.72,-9.72 -13.6,-13.6 -3.88,-3.89 -9.72,-5.83 -15.54,-7.78 -5.83,0 -13.6,-1.94 -21.37,-1.94l-34.99 0c-7.77,0 -15.54,3.89 -21.37,7.77 -5.83,5.84 -9.72,13.6 -9.72,23.32l0 505.24c0,1.94 0,3.88 1.94,5.83 1.95,1.94 3.89,3.89 5.84,3.89 1.94,0 5.83,1.94 11.66,1.94 3.89,1.94 9.72,1.94 17.49,1.94 5.83,0 11.66,0 17.48,-1.94 3.89,0 7.78,-1.94 9.72,-1.94 3.89,0 5.83,-1.95 5.83,-3.89 1.95,-1.95 1.95,-3.89 1.95,-5.83l0 -330.35c0,-21.38 0,-40.81 0,-62.18 0,-21.38 0,-42.75 0,-62.18l0 0c7.77,15.54 15.54,33.04 25.26,50.52 7.78,17.49 17.49,34.98 25.26,50.53l167.12 310.91c5.83,11.67 11.66,19.44 15.54,27.21 5.84,7.78 11.67,13.6 15.55,17.49 5.83,3.89 11.66,5.83 17.48,7.77 3.89,1.95 11.67,1.95 19.43,1.95l23.32 0c3.89,0 7.78,0 11.67,-1.95 3.88,0 7.77,-1.94 9.72,-3.88 3.88,-3.89 5.83,-5.84 7.77,-9.72 1.95,-5.84 3.89,-9.72 3.89,-15.55l0 -503.29 0 -0.01zm503.29 -1.95c0,-1.94 -1.95,-3.88 -1.95,-5.83 -1.94,-1.94 -3.88,-3.89 -5.83,-3.89 -3.88,-1.94 -7.77,-1.94 -11.66,-1.94 -5.83,-1.94 -9.72,-1.94 -17.49,-1.94 -5.83,0 -11.66,0 -17.48,1.94 -3.89,0 -7.78,0 -11.67,1.94 -1.94,0 -3.89,1.95 -5.83,3.89 0,1.95 -1.94,3.89 -1.94,5.83l0 524.68c0,1.94 1.94,3.88 1.94,5.83 1.94,1.94 3.89,3.89 5.83,3.89 3.89,0 5.83,1.94 11.67,1.94 3.88,1.94 9.72,1.94 17.48,1.94 7.78,0 11.67,0 17.49,-1.94 3.89,0 7.78,-1.94 11.66,-1.94 1.95,0 3.89,-1.95 5.83,-3.89 0,-1.95 1.95,-3.89 1.95,-5.83l0 -524.68zm794.77 443.06c-1.94,-5.84 -1.94,-7.78 -1.94,-11.67 -1.94,-1.94 -1.94,-3.89 -3.89,-3.89 -1.94,0 -3.89,-1.94 -5.83,-1.94 -3.89,0 -9.72,3.89 -17.49,7.78 -7.77,5.83 -15.54,11.66 -27.2,19.43 -11.67,5.83 -25.27,11.66 -42.75,17.48 -15.54,5.84 -34.98,7.78 -56.36,7.78 -25.26,0 -48.58,-3.89 -69.95,-13.6 -19.44,-9.72 -36.92,-23.32 -50.53,-40.8 -13.6,-17.49 -25.26,-40.81 -33.04,-66.07 -7.77,-27.21 -11.66,-58.3 -11.66,-93.28 0,-33.04 3.89,-64.12 11.66,-91.33 7.78,-27.2 19.43,-50.52 33.04,-69.95 15.54,-19.43 31.09,-33.04 52.47,-42.75 19.43,-9.72 40.8,-15.54 66.07,-15.54 21.37,0 40.8,3.88 56.35,9.71 17.49,5.84 31.1,11.67 40.81,17.49 11.66,5.83 21.37,13.6 29.15,17.49 5.83,5.83 11.66,9.72 15.54,9.72 1.95,0 3.89,-1.95 5.83,-1.95 1.95,-1.94 3.89,-3.88 3.89,-5.83 1.95,-3.89 1.95,-5.83 1.95,-9.72 1.94,-5.83 1.94,-9.72 1.94,-15.54 0,-3.89 0,-9.72 0,-13.6 -1.94,-1.94 -1.94,-5.83 -1.94,-7.77 -1.95,-3.89 -1.95,-5.84 -3.89,-7.78 0,-1.94 -3.89,-5.83 -7.78,-9.72 -3.89,-1.94 -9.72,-7.78 -19.43,-13.6 -9.72,-5.83 -21.37,-11.66 -34.98,-15.54 -11.66,-3.89 -25.26,-7.78 -40.81,-11.67 -15.54,-1.94 -29.15,-3.88 -44.69,-3.88 -36.92,0 -69.95,5.83 -99.1,19.43 -29.16,13.6 -54.42,31.09 -75.79,56.35 -21.38,25.27 -36.92,54.42 -48.58,89.39 -11.67,36.92 -17.49,75.79 -17.49,122.43 0,42.74 5.83,81.61 15.54,116.59 11.67,33.04 27.21,62.18 46.64,85.5 19.43,23.32 44.69,40.8 73.84,52.47 27.21,11.66 60.24,17.48 95.22,17.48 21.38,0 38.86,-1.94 56.36,-5.83 17.49,-3.89 33.04,-7.78 46.64,-13.6 13.59,-5.83 25.26,-11.66 33.03,-17.49 9.72,-5.83 15.55,-9.71 17.49,-11.66 3.89,-3.89 5.83,-5.83 7.78,-7.77 0,-1.95 1.94,-3.89 1.94,-7.78 0,-1.94 1.94,-3.89 1.94,-7.78 0,-3.88 0,-7.77 0,-11.66 0,-7.78 0,-11.66 0,-15.54l0 0.01zm454.72 -443.06c0,-1.94 -1.94,-3.88 -1.94,-5.83 -1.95,-1.94 -3.89,-3.89 -5.83,-3.89 -3.89,-1.94 -7.78,-1.94 -11.67,-1.94 -3.89,-1.94 -9.72,-1.94 -17.49,-1.94 -5.83,0 -11.66,0 -17.48,1.94 -3.89,0 -7.78,0 -9.72,1.94 -3.89,0 -5.83,1.95 -7.78,3.89 0,1.95 -1.94,3.89 -1.94,5.83l0 524.68c0,1.94 1.94,3.88 1.94,5.83 1.95,1.94 3.89,3.89 5.83,3.89 3.89,0 7.78,1.94 11.67,1.94 5.83,1.94 11.66,1.94 17.48,1.94 7.78,0 13.6,0 17.49,-1.94 3.89,0 7.78,-1.94 11.67,-1.94 1.94,0 3.88,-1.95 5.83,-3.89 0,-1.95 1.94,-3.89 1.94,-5.83l0 -524.68zm757.85 93.28c-5.83,-17.49 -15.54,-33.04 -25.26,-44.7 -11.67,-13.59 -23.32,-25.26 -38.86,-33.03 -15.55,-9.72 -31.1,-15.55 -44.7,-19.43 -15.54,-1.95 -29.15,-3.89 -38.86,-5.84 -11.66,0 -23.32,-1.94 -34.98,-1.94l-116.59 0c-7.78,0 -13.6,3.89 -19.43,7.78 -5.84,5.83 -9.72,13.59 -9.72,23.31l0 505.24c0,1.94 1.94,3.88 1.94,5.83 1.94,1.94 3.89,3.89 5.83,3.89 3.89,0 7.78,1.94 11.67,1.94 3.88,1.94 9.72,1.94 17.48,1.94 7.78,0 13.6,0 17.49,-1.94 3.89,0 7.77,-1.94 11.66,-1.94 1.95,0 3.89,-1.95 5.83,-3.89 0,-1.95 1.95,-3.89 1.95,-5.83l0 -196.27 62.18 0c33.04,0 62.18,-5.83 85.5,-13.6 25.26,-7.78 46.63,-19.43 62.18,-34.98 17.48,-15.55 29.15,-34.98 38.86,-56.36 9.72,-23.32 13.6,-46.64 13.6,-73.84 0,-21.38 -1.95,-40.81 -7.78,-56.36l0.01 0.02zm-75.78 106.88c-5.83,13.6 -13.6,25.26 -23.32,36.92 -9.72,9.72 -21.37,17.48 -34.98,23.32 -15.54,5.83 -33.04,7.77 -56.36,7.77l-64.12 0 0 -219.59 66.07 0c13.6,0 25.26,1.95 38.86,3.89 13.6,1.95 25.26,5.83 36.92,13.6 13.6,7.78 23.32,17.49 31.09,33.04 9.72,15.54 13.6,33.04 13.6,56.36 0,15.54 -3.89,31.09 -7.78,44.69l0.02 0zm643.2 -198.21c-1.94,-1.95 -3.89,-5.83 -5.83,-7.78 -1.94,-1.94 -3.89,-3.89 -7.78,-3.89 -3.88,-1.94 -9.72,-1.94 -15.54,-3.88 -5.83,0 -13.6,0 -21.37,0 -7.78,0 -15.55,0 -21.38,0 -5.83,1.94 -9.72,1.94 -13.6,3.88 -3.88,0 -5.83,1.95 -7.77,3.89 -1.95,1.95 -3.89,3.89 -3.89,7.78l-184.6 507.17c-1.95,5.84 -1.95,11.67 -1.95,15.55 0,3.88 0,5.83 1.95,7.77 1.94,1.95 5.83,3.89 11.66,3.89 3.89,1.94 11.66,1.94 19.43,1.94 7.78,0 13.6,0 19.43,-1.94 3.89,0 7.78,0 11.66,-1.94 1.95,-1.95 3.89,-1.95 5.84,-3.89 1.94,-1.95 1.94,-3.89 3.88,-7.78l44.7 -130.19 227.35 0 46.64 132.14c0,1.94 1.94,5.83 3.89,5.83 0,1.94 1.94,3.89 5.83,3.89 1.94,1.94 5.83,1.94 11.66,3.88 3.89,0 11.66,0 21.38,0 7.77,0 15.54,0 19.43,-1.94 5.83,0 9.72,-1.94 11.66,-3.89 1.94,-1.94 3.89,-3.89 3.89,-7.77 0,-3.89 -1.95,-9.72 -3.89,-15.55l-182.66 -507.17 -0.02 0zm42.75 332.29l-190.44 0 95.22 -272.05 0 0 95.22 272.05zm798.66 155.45c0,-3.88 -1.94,-7.77 -1.94,-9.72 -1.94,-1.94 -3.89,-3.88 -5.83,-5.83 -1.95,-1.94 -3.89,-1.94 -5.83,-1.94l-196.27 0 0 -472.21c0,-1.94 0,-3.88 -1.95,-5.83 0,-1.94 -1.94,-3.89 -5.83,-3.89 -1.94,-1.94 -5.83,-1.94 -11.66,-1.94 -3.89,-1.94 -9.72,-1.94 -17.49,-1.94 -5.83,0 -11.66,0 -17.48,1.94 -3.89,0 -7.78,0 -9.72,1.94 -3.89,0 -5.84,1.95 -7.78,3.89 0,1.95 0,3.89 0,5.83l0 505.24c0,11.66 1.94,19.43 7.78,23.32 5.83,3.88 11.66,7.77 17.48,7.77l242.91 0c1.94,0 3.89,-1.94 5.83,-1.94 1.94,-1.95 3.89,-3.89 5.83,-5.83 0,-3.89 1.95,-5.84 1.95,-9.72 0,-3.89 0,-9.72 0,-15.55 0,-5.83 0,-9.72 0,-13.6l0 0.01z"/>
   <path class="fil1" d="M8783.03 16990.36l0 -441.11 -1146.5 0 0 -2085.07 -493.58 0 0 2526.18 1640.08 0zm893.87 -2526.18l-493.58 0 0 2526.18 493.58 0 0 -2526.18zm2221.1 1779.97c0,-223.46 -60.24,-408.08 -194.33,-536.32 -106.87,-99.11 -252.61,-163.23 -483.86,-194.33l-297.31 -42.75c-102.99,-13.6 -184.6,-52.47 -235.13,-99.1 -52.46,-50.53 -73.84,-116.6 -73.84,-180.72 0,-174.89 128.26,-318.68 390.58,-318.68 167.12,0 357.56,21.37 518.85,172.95l310.91 -308.98c-215.7,-209.86 -468.31,-293.42 -816.15,-293.42 -546.04,0 -880.27,314.81 -880.27,765.63 0,213.75 60.23,376.98 182.66,497.46 112.7,108.82 272.05,176.83 489.69,207.93l305.08 42.74c116.6,17.49 172.95,42.75 223.47,89.39 52.47,48.58 77.73,124.37 77.73,211.81 0,204.04 -157.4,312.86 -446.94,312.86 -235.13,0 -450.83,-52.47 -610.17,-211.81l-320.63 318.69c248.73,252.61 540.22,334.23 923.03,334.23 528.56,0 936.64,-277.88 936.64,-767.57l-0.01 -0.01zm2294.94 17.5c0,-336.18 -194.33,-495.52 -347.84,-567.42 128.26,-60.24 312.86,-240.96 312.86,-520.79 0,-433.33 -287.6,-709.27 -781.17,-709.27l-1014.37 0 0 2526.18 1057.12 0c450.82,0 773.4,-256.51 773.4,-728.71l0 0.01zm-491.64 -23.32c0,169.06 -106.87,310.92 -330.35,310.92l-514.95 0 0 -619.89 514.95 0c223.47,0 330.35,137.97 330.35,308.97zm-36.91 -1043.51c0,172.95 -116.6,289.54 -326.46,289.54l-481.92 0 0 -581.02 481.92 0c209.86,0 326.46,116.59 326.46,291.49l0 -0.01zm2813.78 532.45c0,-437.22 3.88,-752.03 -252.62,-1008.53 -176.83,-176.83 -392.53,-275.94 -680.13,-275.94 -287.6,0 -507.17,99.11 -684.01,275.94 -256.51,256.5 -248.73,571.31 -248.73,1008.53 0,435.27 -7.78,752.02 248.73,1006.58 176.83,176.83 396.41,277.88 684.01,277.88 287.6,0 503.29,-101.05 680.13,-277.88 256.5,-254.56 252.62,-571.31 252.62,-1006.58zm-493.58 0c0,485.8 -27.21,602.39 -124.37,709.27 -69.96,81.62 -180.72,134.08 -314.81,134.08 -134.08,0 -248.72,-52.47 -318.68,-134.08 -97.16,-106.87 -120.48,-223.46 -120.48,-709.27 0,-487.75 23.32,-604.34 120.48,-711.22 69.96,-81.62 184.6,-134.08 318.68,-134.08 134.08,0 244.85,52.46 314.81,134.08 97.16,106.87 124.37,223.46 124.37,711.22zm2912.88 1263.09l-921.09 -2526.18 -386.7 0 -919.14 2526.18 514.95 0 151.58 -446.94 897.76 0 149.64 446.94 513 0 0 0zm-794.78 -862.8l-627.66 0 320.63 -919.14 307.03 919.14z"/>
  </g>
 </g>
</svg>
