<!DOCTYPE svg PUBLIC "-//W3C//DTD SVG 20010904//EN" "http://www.w3.org/TR/2001/REC-SVG-20010904/DTD/svg10.dtd">
<svg version="1.0" xmlns="http://www.w3.org/2000/svg" width="1600px" height="1522px" viewBox="0 0 16000 15220" preserveAspectRatio="xMidYMid meet">
<g id="layer101" fill="#ffffff" stroke="none">
 <path d="M4332 14579 c-163 -21 -289 -79 -402 -186 -94 -89 -153 -162 -345 -433 -76 -107 -149 -209 -162 -227 l-23 -31 -57 59 -58 60 -75 -48 c-274 -174 -407 -315 -470 -499 -35 -102 -29 -133 51 -269 39 -66 89 -163 110 -215 95 -228 195 -365 352 -483 110 -83 435 -301 538 -362 l92 -54 -29 -12 c-44 -17 -124 -27 -304 -39 -239 -16 -366 -37 -523 -86 -153 -49 -232 -101 -415 -277 -123 -117 -132 -124 -223 -157 -80 -29 -124 -77 -180 -195 -55 -117 -142 -365 -205 -583 -42 -147 -57 -218 -84 -411 -6 -47 -22 -105 -35 -130 -12 -25 -35 -84 -51 -131 -26 -77 -28 -98 -28 -220 0 -127 2 -140 31 -218 31 -81 93 -204 188 -372 132 -234 235 -528 270 -776 26 -179 36 -204 104 -263 71 -62 109 -132 180 -328 28 -79 57 -155 65 -170 8 -16 73 -86 146 -158 72 -71 145 -149 161 -172 18 -26 56 -123 98 -250 38 -114 91 -271 119 -348 27 -77 75 -216 107 -310 124 -368 433 -1084 569 -1315 165 -283 412 -599 639 -816 65 -63 218 -188 358 -294 482 -364 603 -463 844 -694 126 -120 129 -124 113 -143 -17 -19 -17 -21 8 -44 14 -13 37 -44 52 -68 24 -41 25 -46 13 -93 -17 -65 -7 -116 25 -130 13 -6 24 -18 24 -27 0 -9 -30 -43 -66 -75 -75 -67 -124 -155 -132 -236 -3 -38 1 -57 27 -105 41 -77 40 -105 -6 -149 -43 -40 -43 -36 -28 -297 7 -124 6 -143 -14 -207 -27 -89 -26 -105 5 -227 20 -79 23 -114 19 -165 l-7 -66 63 -74 c75 -90 99 -139 92 -190 -7 -52 10 -78 71 -105 63 -28 70 -36 100 -114 14 -33 34 -75 47 -92 19 -27 26 -30 57 -25 44 7 66 -5 97 -54 21 -33 32 -40 78 -50 30 -6 69 -22 88 -35 18 -14 42 -25 54 -25 11 0 30 -6 41 -14 30 -22 172 -38 303 -35 64 2 131 -1 149 -5 19 -5 38 -4 45 2 7 5 59 12 117 15 170 8 312 33 389 67 38 16 83 30 100 30 35 0 135 35 171 60 14 10 49 32 78 49 29 17 79 52 111 77 32 26 76 57 97 69 27 15 43 33 51 57 6 19 25 57 42 83 47 74 40 96 -23 70 -20 -8 -36 -13 -36 -10 0 2 22 37 49 77 60 90 93 156 116 229 10 31 35 80 57 110 21 30 52 74 68 99 16 25 39 55 51 67 24 24 23 33 -12 128 -15 41 -20 69 -15 89 10 41 81 112 242 242 111 90 148 126 165 160 19 39 20 48 8 76 -16 39 -82 87 -131 95 -22 3 -46 13 -55 21 -24 24 -11 108 26 174 38 67 39 89 4 128 -20 23 -40 33 -71 37 -49 7 -38 23 16 23 76 0 94 74 37 154 -19 27 -35 55 -35 62 0 7 25 41 55 75 62 69 80 117 69 187 -30 204 -192 291 -660 352 -181 24 -222 35 -293 81 -61 40 -105 99 -131 175 -30 86 -27 114 16 148 44 35 74 82 74 118 0 35 -41 163 -100 313 -104 264 -152 369 -243 536 l-47 85 15 190 c7 104 16 236 20 294 3 58 14 247 25 420 46 752 48 897 17 1177 -12 104 -12 111 5 102 49 -26 107 6 132 74 9 23 20 82 26 131 5 49 14 94 20 100 6 6 50 11 98 11 70 0 95 5 127 22 41 22 102 81 149 144 14 20 53 51 85 68 91 48 173 115 201 162 40 68 71 92 207 160 140 70 373 206 468 273 33 23 95 62 138 85 278 152 455 368 678 829 83 172 115 256 157 412 35 133 36 138 36 335 1 222 -10 292 -49 323 -23 18 -24 28 -35 228 -13 222 -20 257 -56 281 -34 22 -63 8 -85 -43 -11 -24 -26 -44 -34 -44 -7 0 -20 -3 -29 -6 -11 -4 -18 5 -26 38 -25 98 -53 170 -77 198 -28 34 -143 74 -251 89 -56 7 -66 5 -89 -12 -24 -19 -25 -25 -21 -88 7 -89 36 -146 120 -233 94 -98 118 -148 118 -250 0 -123 -18 -205 -51 -238 -35 -35 -64 -36 -92 -1 -59 71 -86 93 -115 93 -35 0 -44 -11 -60 -65 -25 -87 -62 -96 -107 -26 -26 43 -77 71 -127 71 l-33 0 -1 113 c-1 129 -20 200 -84 307 -103 174 -303 334 -745 595 -273 161 -356 214 -637 405 -395 268 -567 399 -786 593 -111 99 -223 223 -573 637 l-225 265 165 0 c184 0 293 18 353 58 18 13 51 53 73 89 22 37 52 80 68 95 15 16 27 34 27 39 0 35 -173 136 -306 180 -102 33 -288 72 -459 96 -185 26 -466 11 -614 -32 -19 -5 -36 -8 -38 -6 -3 2 51 43 119 91 84 60 178 114 298 172 308 149 345 170 445 250 50 40 115 142 115 180 0 31 -57 119 -101 156 -87 75 -50 72 -849 73 -393 1 -743 -2 -778 -7z"/>
 <path d="M11770 14466 c-205 -44 -458 -121 -528 -162 -94 -56 -152 -129 -152 -194 0 -79 107 -204 218 -257 l57 -26 -53 -54 c-78 -81 -95 -121 -90 -209 l5 -73 -49 -48 c-55 -53 -78 -90 -78 -126 0 -39 49 -125 96 -166 50 -44 104 -61 194 -61 59 0 61 -1 105 -46 50 -52 39 -51 223 -23 82 13 83 13 180 -19 53 -18 117 -35 142 -38 56 -8 68 -17 76 -59 9 -48 41 -73 141 -110 l88 -33 5 -99 c4 -54 9 -104 14 -111 4 -7 16 -85 26 -175 16 -146 18 -231 14 -859 -4 -657 -5 -701 -23 -750 -11 -29 -29 -88 -40 -130 -12 -46 -37 -102 -61 -139 -22 -34 -41 -69 -41 -78 -1 -9 -3 -45 -4 -81 -1 -41 -13 -98 -33 -155 -16 -49 -35 -122 -42 -161 l-11 -70 -72 9 c-88 11 -161 3 -196 -20 -19 -12 -47 -17 -102 -18 -48 0 -82 -5 -92 -13 -32 -27 -67 -121 -67 -181 0 -49 5 -61 36 -101 33 -42 35 -48 29 -94 -6 -48 -5 -49 39 -91 44 -41 46 -44 46 -101 0 -33 -12 -145 -27 -250 l-27 -191 18 -194 c12 -125 17 -250 15 -351 l-4 -157 -36 -38 c-84 -91 -180 -235 -200 -303 -31 -108 -20 -200 36 -293 62 -104 56 -164 -19 -198 -53 -23 -81 -56 -90 -104 -6 -29 -18 -42 -64 -73 l-57 -38 2 -49 c8 -166 9 -154 -41 -275 -61 -147 -62 -151 -38 -180 16 -20 29 -24 73 -25 43 0 54 -3 57 -18 2 -9 -19 -66 -47 -125 -56 -121 -70 -172 -71 -249 0 -28 -8 -78 -19 -112 -22 -70 -272 -527 -316 -577 -36 -41 -150 -91 -250 -109 -73 -14 -115 -45 -115 -85 0 -11 -12 -26 -30 -35 -37 -19 -50 -43 -50 -95 0 -33 -4 -42 -23 -49 -12 -5 -40 -28 -62 -52 -21 -24 -52 -52 -67 -61 -39 -24 -38 -65 2 -103 27 -26 30 -35 30 -92 0 -50 6 -76 29 -121 16 -32 37 -65 46 -72 21 -17 153 -16 288 2 82 11 90 11 132 -10 58 -28 74 -28 208 7 179 46 255 57 272 40 12 -13 100 -343 176 -664 46 -193 67 -260 129 -422 65 -167 92 -224 185 -388 35 -60 76 -140 92 -176 34 -74 71 -109 118 -109 42 0 65 -27 65 -74 0 -106 -117 -166 -324 -166 -94 0 -145 -22 -183 -79 -19 -28 -23 -47 -23 -115 0 -76 -2 -84 -30 -116 -16 -19 -29 -41 -30 -49 0 -8 16 -33 35 -57 19 -23 35 -44 35 -47 0 -3 -11 -7 -23 -11 -66 -16 -96 -75 -62 -120 8 -11 15 -35 15 -54 0 -28 -8 -41 -36 -66 -108 -92 -108 -97 -12 -208 39 -46 79 -101 89 -123 26 -55 24 -122 -4 -177 -17 -34 -20 -49 -12 -62 7 -12 0 -35 -31 -98 -62 -124 -69 -150 -69 -278 0 -129 6 -147 90 -265 24 -34 56 -85 72 -115 27 -50 39 -60 124 -108 52 -30 126 -72 164 -94 88 -50 243 -112 315 -127 70 -14 261 -33 320 -33 25 1 97 15 160 32 106 30 123 32 218 26 111 -6 179 4 340 50 151 44 240 93 334 187 141 140 198 250 220 427 10 78 9 96 -15 215 -29 138 -33 195 -17 225 5 10 60 55 122 101 243 178 393 317 487 454 49 71 52 77 37 94 -15 16 -14 22 4 77 24 69 68 245 72 289 3 28 1 30 -32 30 l-35 0 -6 205 c-7 220 -16 305 -54 500 -40 213 -41 193 5 331 62 188 79 263 94 415 11 116 18 152 46 219 18 44 40 90 47 102 10 15 11 23 3 28 -15 9 -44 -17 -95 -87 -33 -45 -44 -55 -54 -45 -10 9 -17 7 -32 -12 -11 -13 -22 -35 -26 -50 -9 -39 -32 -81 -45 -81 -15 0 -4 125 17 205 9 32 38 104 65 160 64 131 88 201 74 215 -15 15 -49 -14 -152 -133 -171 -198 -211 -265 -232 -395 -11 -65 -16 -77 -51 -110 -30 -28 -43 -51 -54 -96 -9 -32 -26 -71 -39 -87 -13 -15 -29 -52 -36 -81 -21 -88 -37 -114 -89 -151 -71 -51 -81 -77 -88 -215 -8 -169 27 -346 183 -922 48 -177 19 -402 -73 -571 -34 -64 -68 -91 -117 -92 -64 -2 -69 12 -78 194 -13 285 -36 358 -142 464 -58 58 -93 82 -186 129 -140 71 -164 87 -179 125 -31 73 4 112 131 151 191 58 226 116 152 255 -20 37 -36 82 -36 99 -1 78 24 210 57 306 63 187 83 355 90 773 3 166 13 337 30 501 29 291 33 527 10 625 -9 35 -29 92 -45 127 -27 55 -30 72 -30 156 0 57 -8 133 -20 189 -11 52 -23 154 -27 227 -6 129 -7 135 -37 174 -44 57 -66 99 -66 126 0 22 1 22 30 7 16 -8 36 -15 44 -15 25 0 46 42 46 92 0 27 4 48 10 48 5 0 38 27 74 60 53 50 70 75 97 138 40 96 95 243 164 437 29 83 65 176 80 207 48 104 65 185 75 348 5 85 15 191 21 235 6 44 13 199 15 345 2 164 9 309 19 380 8 63 23 171 32 240 11 83 16 186 15 304 -1 189 0 195 50 256 36 44 37 92 3 143 -34 49 -68 50 -126 2 -23 -20 -51 -41 -62 -47 -27 -14 -81 -4 -119 23 -39 28 -81 28 -135 0 -73 -37 -110 -37 -222 0 -98 32 -102 35 -111 69 -6 19 -13 150 -16 290 -5 200 -3 283 9 385 9 72 19 186 22 255 7 138 19 221 70 475 19 94 44 249 56 345 36 291 16 570 -64 897 -77 310 -100 422 -104 514 -5 82 -3 102 16 143 25 58 27 103 5 135 -13 17 -17 55 -21 161 -4 137 -4 139 25 197 77 152 113 285 127 468 28 349 29 343 -40 382 -49 27 -93 37 -255 57 -69 9 -141 20 -160 26 -46 13 -96 13 -137 -2 -29 -10 -39 -9 -78 10 -57 27 -80 28 -113 1 -31 -24 -55 -20 -108 16 -40 27 -96 33 -137 14 -18 -8 -42 -5 -113 16 -80 24 -109 27 -279 31 -136 2 -208 0 -255 -10z"/>
 </g>

</svg>